<?xml version="1.0" standalone="no"?>
<!DOCTYPE svg PUBLIC "-//W3C//DTD SVG 20010904//EN"
 "http://www.w3.org/TR/2001/REC-SVG-20010904/DTD/svg10.dtd">
<svg version="1.0" xmlns="http://www.w3.org/2000/svg"
 width="2084.000000pt" height="2084.000000pt" viewBox="0 0 2084.000000 2084.000000"
 preserveAspectRatio="xMidYMid meet">

<g transform="translate(0.000000,2084.000000) scale(0.100000,-0.100000)"
fill="#000000" stroke="none">
<path d="M11387 17226 c19 -25 83 -60 83 -45 0 5 -4 9 -10 9 -14 0 -50 42 -44
52 3 4 -7 8 -21 8 -26 0 -26 0 -8 -24z"/>
<path d="M11461 17232 c7 -11 16 -19 20 -16 4 2 12 -4 18 -13 6 -10 11 -13 11
-6 0 6 -14 22 -31 34 -30 21 -30 21 -18 1z"/>
<path d="M11300 17208 c0 -4 5 -8 11 -8 6 0 9 -9 6 -20 -3 -11 -1 -20 4 -20 5
0 9 7 9 15 0 19 8 19 43 1 32 -17 36 -5 6 23 -21 19 -79 26 -79 9z"/>
<path d="M11497 17150 c3 -14 13 -29 20 -33 9 -6 13 -18 9 -32 -5 -18 2 -29
29 -49 19 -15 35 -36 35 -47 0 -12 7 -19 20 -19 22 0 27 -16 8 -23 -8 -3 -1
-9 15 -16 24 -9 27 -15 22 -43 -3 -18 -2 -28 3 -21 8 13 54 -18 109 -76 26
-28 32 -41 30 -73 -2 -34 -5 -38 -29 -38 -15 0 -30 5 -33 10 -3 6 -22 10 -40
10 -24 0 -38 6 -45 20 -6 11 -8 20 -4 20 3 0 1 7 -6 15 -7 8 -23 15 -36 15
-13 0 -28 9 -34 20 -6 11 -15 18 -19 16 -9 -6 -55 41 -64 66 -3 9 0 24 8 34
11 15 15 16 29 5 20 -17 21 -5 4 49 -13 39 -32 56 -26 23 2 -12 -5 -18 -24
-19 -16 -2 -29 2 -30 9 0 7 -2 26 -4 42 -9 92 -30 140 -54 124 -13 -8 -13 -11
2 -19 10 -6 20 -27 23 -48 15 -86 29 -148 37 -159 11 -14 1 -53 -13 -53 -14 0
-58 52 -59 68 0 7 -5 10 -11 7 -6 -4 -22 4 -36 16 l-26 24 17 -32 c20 -41 20
-43 -4 -43 -48 0 -109 56 -116 107 -2 20 -5 38 -7 39 -1 1 -19 4 -40 7 -26 3
-37 1 -34 -7 2 -6 14 -11 26 -10 15 0 21 -5 21 -21 0 -11 5 -26 11 -32 9 -9 7
-10 -10 -6 -11 3 -39 23 -61 44 -22 22 -45 39 -50 39 -6 0 -10 7 -10 15 0 19
9 19 32 -2 17 -15 18 -15 18 5 0 14 -5 20 -14 16 -8 -3 -16 3 -19 15 -3 14
-10 19 -21 15 -9 -4 -16 -1 -16 6 0 9 -10 11 -32 6 -23 -4 -28 -3 -18 3 21 14
10 19 -27 14 -18 -3 -33 -11 -33 -18 0 -8 -8 -11 -20 -8 -11 3 -20 1 -20 -5 0
-15 -30 -43 -40 -37 -5 3 -7 22 -4 43 4 37 4 37 -11 -8 -8 -25 -15 -55 -15
-67 0 -12 -4 -24 -10 -28 -11 -7 -40 46 -40 74 0 14 -5 19 -15 15 -10 -4 -15
0 -16 12 -1 11 -6 4 -12 -15 -8 -26 -8 -36 1 -39 7 -2 12 -19 12 -37 0 -43
-28 -62 -62 -43 -20 10 -21 13 -5 16 9 2 17 11 16 20 0 11 -2 12 -6 5 -2 -7
-10 -13 -17 -13 -7 0 -18 -15 -24 -34 -11 -29 -10 -41 4 -75 9 -23 15 -44 12
-46 -7 -7 -58 45 -58 59 0 8 -12 37 -27 66 -22 43 -24 53 -12 60 11 8 12 13 2
30 -7 11 -13 26 -13 35 0 27 -38 38 -85 25 -24 -7 -48 -9 -54 -5 -14 8 -14
-18 0 -32 13 -13 4 -33 -16 -33 -12 0 -12 -5 -2 -27 9 -21 9 -27 -1 -31 -10
-3 -10 -7 -1 -18 17 -20 22 -74 7 -71 -7 1 -14 -8 -16 -20 -4 -24 -22 -32 -22
-10 0 8 -3 8 -9 -2 -17 -26 -36 -20 -38 12 -3 34 -23 63 -23 33 0 -15 -3 -16
-15 -6 -12 10 -18 10 -30 0 -23 -19 -65 12 -58 42 4 13 11 26 17 30 7 5 5 8
-4 8 -9 0 -21 -5 -27 -11 -9 -9 -20 -2 -45 27 -18 21 -32 41 -31 46 5 13 -25
9 -30 -4 -3 -9 -8 -10 -16 -2 -13 12 -70 6 -72 -7 -1 -5 -3 -13 -4 -19 -1 -5
-3 -22 -4 -36 -1 -17 -8 -28 -21 -31 -23 -6 -26 -19 -6 -26 16 -6 29 -47 15
-47 -6 0 -9 -19 -8 -43 3 -44 -5 -67 -21 -67 -5 0 -11 12 -13 28 l-4 27 -2
-28 c-1 -35 -21 -26 -22 11 -1 21 -2 23 -6 7 -3 -11 -10 -31 -15 -44 -8 -23
-9 -23 -23 -5 -19 25 -19 72 -1 76 12 2 12 9 2 40 -10 27 -10 40 -2 48 8 8 6
9 -6 5 -10 -4 -18 -17 -18 -30 0 -13 -5 -36 -10 -51 -10 -25 -12 -26 -27 -12
-19 19 -9 39 15 32 10 -4 13 -2 7 3 -19 16 -35 58 -33 91 0 17 4 32 8 32 3 0
6 11 6 25 0 27 -4 29 -26 15 -9 -6 -11 -10 -3 -10 7 0 10 -7 7 -15 -4 -8 -10
-15 -15 -15 -5 0 -9 7 -9 15 0 8 -4 15 -10 15 -5 0 -10 -4 -10 -10 0 -5 -7
-10 -15 -10 -8 0 -15 7 -15 16 0 27 -25 9 -30 -22 -3 -16 -12 -51 -19 -77 -13
-44 -15 -47 -31 -32 -22 20 -28 19 -26 -2 0 -10 8 -21 17 -25 13 -5 14 -16 8
-68 -4 -34 -12 -67 -18 -73 -8 -8 -11 -8 -11 1 0 7 -5 12 -11 12 -12 0 -1 -42
14 -51 14 -10 -1 -79 -17 -79 -8 0 -19 14 -25 32 -6 18 -20 41 -30 53 -10 11
-23 34 -29 50 -11 28 -11 28 -5 -10 3 -22 12 -47 19 -56 8 -8 14 -23 14 -32 0
-9 5 -19 11 -22 7 -5 5 -13 -5 -24 -9 -10 -17 -38 -19 -62 -2 -34 -7 -45 -22
-48 -11 -2 -25 -11 -31 -19 -10 -14 -14 -14 -28 -3 -10 8 -16 9 -16 3 0 -6 5
-14 11 -17 16 -10 28 -49 18 -60 -7 -9 -11 -26 -19 -80 -3 -18 -19 29 -19 58
-1 15 4 27 12 27 8 0 7 4 -3 10 -13 9 -13 11 0 19 8 6 11 13 7 17 -12 13 -21
-5 -28 -59 -9 -68 -28 -140 -39 -151 -6 -6 -15 -4 -25 4 -13 11 -19 10 -35 -5
-11 -10 -20 -24 -20 -32 0 -7 -7 -13 -15 -13 -9 0 -12 -6 -9 -15 4 -8 2 -15
-4 -15 -5 0 -13 -12 -16 -26 -4 -16 -13 -24 -24 -23 -9 1 -25 -1 -34 -5 -9 -4
-24 -6 -33 -4 -14 3 -14 6 4 25 21 22 28 57 14 66 -5 2 -2 2 5 1 14 -4 39 42
29 53 -4 4 -14 -2 -22 -13 -12 -16 -14 -17 -15 -2 0 9 5 18 11 20 13 4 23 88
10 88 -12 0 -84 -81 -105 -120 -11 -19 -35 -50 -54 -68 -45 -43 -61 -31 -44
33 7 25 12 56 12 70 0 14 4 25 10 25 5 0 8 13 7 30 -2 35 -27 41 -27 6 0 -13
-6 -29 -14 -35 -8 -7 -17 -28 -21 -49 -4 -20 -10 -41 -14 -47 -5 -5 -11 -25
-15 -43 -3 -19 -12 -48 -20 -65 -8 -18 -16 -40 -20 -50 -4 -13 -12 -16 -31
-11 -20 5 -30 0 -47 -21 l-21 -27 -15 28 c-21 39 -23 65 -6 92 8 12 12 23 9
23 -3 1 -9 3 -15 4 -5 1 -22 3 -36 4 -26 1 -27 2 -22 59 5 56 5 57 -7 18 -12
-42 -35 -60 -35 -29 -1 16 -3 15 -20 -6 -15 -17 -26 -22 -45 -17 -24 6 -25 5
-25 -51 0 -77 -8 -103 -32 -103 -17 0 -18 6 -13 53 5 47 4 49 -7 22 -6 -16
-17 -36 -25 -43 -7 -7 -13 -20 -13 -28 0 -8 -4 -14 -10 -14 -5 0 -10 11 -10
25 0 33 -18 32 -22 -2 -5 -42 -23 -38 -38 9 -12 41 -13 42 -23 20 -8 -17 -7
-38 2 -75 23 -100 24 -109 10 -117 -7 -5 -13 -25 -12 -47 1 -45 -10 -69 -37
-78 -11 -3 -20 -15 -20 -26 0 -17 -11 -24 -34 -20 -5 1 -13 -4 -17 -11 -5 -8
-9 5 -9 34 0 26 5 50 10 53 6 4 10 -6 10 -22 1 -35 15 -14 24 37 6 31 5 33 -7
18 -8 -10 -19 -18 -24 -18 -24 0 -33 -49 -30 -162 1 -65 -2 -119 -7 -121 -5
-2 -2 -27 6 -57 14 -50 24 -159 20 -220 -2 -25 -20 -243 -25 -292 -2 -30 -17
-51 -17 -25 0 10 -6 17 -13 17 -7 0 -18 9 -25 20 -19 31 -31 24 -26 -16 5 -41
-4 -63 -17 -43 -9 14 -11 -11 -13 -128 0 -36 -4 -53 -13 -53 -7 0 -13 8 -14
18 0 13 -3 12 -11 -6 -8 -16 -8 -29 0 -46 7 -17 7 -27 -1 -35 -8 -8 -8 -11 1
-11 18 0 14 -28 -5 -39 -10 -6 -13 -11 -8 -11 6 -1 3 -4 -6 -8 -13 -6 -14 -12
-7 -32 7 -20 11 -22 18 -10 8 12 10 12 15 -2 8 -20 -2 -41 -16 -33 -5 4 -9 -2
-9 -12 -1 -15 -4 -14 -22 7 -11 14 -19 21 -17 15 2 -5 11 -27 19 -47 8 -21 18
-38 22 -38 4 0 8 -7 8 -15 0 -8 -7 -15 -15 -15 -12 0 -13 -4 -3 -25 14 -31 5
-43 -19 -24 -17 13 -17 13 0 -13 20 -32 22 -74 5 -82 -10 -5 -10 -7 0 -12 14
-6 52 -80 52 -101 0 -7 4 -13 8 -13 4 0 13 -21 20 -47 10 -37 10 -48 0 -54 -9
-6 -10 -11 -2 -19 12 -12 -1 -63 -22 -91 -6 -8 -11 -61 -12 -118 -2 -112 -6
-125 -31 -117 -13 5 -13 4 2 -8 17 -13 17 -17 3 -51 -18 -42 -21 -70 -5 -42
19 32 31 18 27 -33 -1 -28 0 -50 5 -50 4 0 7 -4 7 -10 0 -5 -7 -10 -15 -10 -8
0 -15 -9 -15 -20 0 -11 5 -20 11 -20 12 0 8 -41 -12 -113 -11 -39 -11 -50 0
-56 9 -6 11 -21 6 -52 -7 -49 10 -139 28 -151 6 -4 12 -13 13 -20 0 -7 2 -20
2 -29 1 -9 13 -22 27 -29 13 -7 22 -16 20 -20 -5 -9 31 -97 43 -104 4 -2 7
-24 5 -48 -1 -24 3 -72 8 -108 6 -36 12 -79 13 -97 1 -17 7 -37 13 -45 6 -7
14 -31 18 -53 4 -22 12 -46 18 -53 6 -8 10 -31 8 -52 -1 -21 2 -41 8 -45 6 -3
9 -16 5 -29 -3 -14 1 -27 10 -35 9 -8 16 -20 16 -29 0 -9 9 -42 21 -75 17 -49
19 -63 9 -87 -11 -26 -9 -33 14 -63 14 -19 26 -41 26 -49 0 -9 7 -21 15 -28
11 -9 14 -22 10 -40 -3 -14 1 -43 11 -65 21 -52 25 -205 5 -229 -20 -23 -8
-30 32 -17 18 6 42 11 53 10 80 -8 184 12 147 28 -14 5 -17 41 -7 67 8 20 57
21 74 1 7 -8 9 -15 5 -15 -5 0 0 -9 10 -20 14 -15 15 -20 4 -21 -8 0 -3 -5 11
-10 20 -8 22 -12 10 -19 -12 -8 -12 -10 3 -16 11 -4 15 -13 11 -28 -3 -14 3
-29 17 -45 19 -20 20 -27 10 -43 -10 -16 -10 -19 1 -12 7 4 -7 -13 -32 -39
-30 -32 -44 -55 -45 -74 0 -21 -5 -29 -22 -31 -13 -2 -23 2 -23 8 0 6 -4 8
-10 5 -5 -3 -10 -1 -10 5 0 13 -26 41 -32 35 -2 -2 -21 11 -42 29 -24 23 -46
33 -62 31 -13 -1 -24 2 -24 6 0 5 -8 9 -17 9 -10 0 -36 7 -58 15 -22 8 -45 14
-51 15 -20 0 -114 -91 -114 -110 0 -11 -4 -21 -9 -24 -5 -3 -12 -20 -15 -38
-3 -18 -8 -44 -11 -58 -3 -14 -7 -54 -9 -90 -3 -36 -9 -78 -15 -93 -27 -70 -1
-266 40 -310 10 -11 20 -31 24 -45 6 -25 63 -114 78 -120 4 -2 7 -10 7 -18 0
-8 7 -17 15 -20 8 -4 15 -14 15 -25 0 -24 20 -69 42 -93 10 -11 18 -23 18 -27
0 -4 18 -18 40 -30 22 -13 40 -26 40 -31 0 -4 6 -8 14 -8 8 0 16 -5 18 -11 6
-19 60 -13 75 7 14 19 15 97 2 88 -9 -5 -19 21 -19 50 0 31 -7 35 -40 26 -54
-16 -158 25 -146 57 3 7 1 15 -4 18 -4 3 -8 26 -7 52 0 27 -5 49 -11 51 -7 2
-10 7 -7 12 3 4 7 50 9 102 4 83 17 139 46 203 5 11 13 36 19 55 6 19 22 48
36 64 14 16 25 34 25 40 1 16 36 56 49 56 6 0 11 7 11 16 0 8 5 12 10 9 6 -4
8 -11 4 -16 -3 -5 -1 -16 6 -24 6 -8 11 -22 10 -32 -3 -28 11 -63 25 -63 15 0
103 48 110 61 10 15 25 10 25 -9 0 -22 -60 -102 -76 -102 -7 0 -14 -6 -17 -13
-2 -7 -22 -21 -43 -32 -64 -33 -124 -86 -124 -110 0 -8 -4 -15 -10 -15 -5 0
-10 -7 -10 -15 0 -8 -8 -15 -17 -15 -17 -1 -17 -2 1 -15 11 -9 15 -18 10 -27
-5 -7 -7 -25 -5 -40 1 -16 -2 -28 -9 -28 -7 0 -8 -6 0 -19 5 -11 10 -42 10
-70 0 -54 16 -72 87 -100 24 -10 33 -21 37 -47 5 -25 12 -34 26 -34 11 0 20 6
20 13 0 7 12 18 28 25 43 18 89 49 129 84 56 51 63 59 63 69 0 5 7 9 15 9 10
0 15 -10 15 -29 0 -16 7 -41 14 -57 13 -25 13 -29 -2 -41 -15 -13 -10 -14 41
-9 l57 5 0 -38 c0 -25 7 -44 19 -55 32 -29 34 -61 6 -120 -14 -30 -25 -71 -25
-94 0 -23 -4 -42 -10 -42 -5 0 -10 -6 -10 -13 0 -8 -9 -22 -20 -32 -11 -10
-20 -24 -20 -31 0 -7 -8 -15 -19 -19 -10 -3 -31 -17 -45 -30 -15 -14 -36 -25
-47 -25 -10 0 -19 -3 -19 -8 0 -13 -54 -31 -105 -33 -27 -2 -53 -7 -57 -13 -4
-6 -12 -5 -22 3 -9 8 -16 10 -16 5 0 -4 -5 -3 -12 4 -17 17 -28 15 -28 -7 0
-26 85 -87 135 -96 88 -16 158 -7 221 27 44 24 76 34 126 38 l67 5 -19 53
c-18 50 -18 82 0 82 17 0 41 -53 63 -137 12 -48 27 -90 32 -93 6 -3 10 -15 10
-28 1 -13 6 -26 12 -30 6 -4 16 -26 23 -49 13 -41 40 -67 40 -37 0 14 48 39
57 30 3 -2 6 -20 7 -40 2 -19 8 -41 13 -48 6 -7 13 -26 17 -43 4 -16 15 -38
23 -48 9 -9 17 -25 18 -35 1 -9 5 -24 7 -32 17 -49 25 -93 21 -110 -3 -12 2
-29 12 -40 10 -11 13 -20 7 -20 -6 0 -17 -10 -23 -22 -11 -21 -11 -22 5 -9 15
13 19 13 27 0 14 -23 11 -59 -6 -59 -12 0 -13 -3 -3 -19 7 -11 15 -18 19 -15
4 2 9 -3 13 -11 3 -8 0 -17 -6 -21 -7 -5 -7 -9 1 -13 15 -9 23 -89 10 -97 -6
-3 1 -16 14 -28 22 -20 24 -28 17 -64 -7 -43 1 -62 30 -62 12 0 13 -2 1 -9
-18 -11 -5 -31 19 -31 13 0 17 -5 14 -15 -4 -8 -1 -15 6 -15 14 0 6 59 -8 70
-12 7 -42 53 -42 62 0 5 9 8 20 8 11 0 20 -4 20 -8 0 -5 12 -14 26 -21 25 -11
25 -12 10 -36 -9 -14 -13 -25 -9 -24 20 3 21 -4 8 -40 -11 -32 -11 -42 -1 -50
7 -6 17 -7 21 -3 5 4 5 1 1 -6 -4 -7 -12 -10 -17 -7 -5 3 -6 -1 -3 -9 5 -12 0
-16 -17 -16 -21 -1 -22 -2 -8 -13 15 -11 17 -16 20 -34 1 -5 4 3 8 16 4 14 13
27 21 29 13 5 13 3 0 -13 -14 -16 -13 -17 8 -11 17 6 21 4 16 -9 -4 -9 -3 -15
2 -14 21 4 35 -2 29 -11 -4 -6 -11 -8 -16 -4 -5 3 -8 0 -7 -8 2 -9 -8 -13 -29
-14 -18 0 -33 -3 -33 -7 0 -4 0 -14 0 -23 0 -9 5 -12 12 -8 8 5 9 2 5 -9 -3
-10 -2 -17 4 -17 6 0 7 -5 3 -11 -5 -8 1 -10 20 -7 22 4 26 2 26 -18 0 -17 7
-25 25 -30 14 -3 22 -10 19 -15 -3 -5 0 -9 5 -9 15 0 14 -27 -1 -33 -7 -3 0
-10 16 -16 l29 -12 -23 -24 c-28 -30 -30 -30 -25 -5 4 21 -10 26 -34 11 -11
-7 -10 -11 5 -20 11 -6 15 -10 9 -10 -21 0 -45 27 -39 43 5 13 0 16 -25 16
-17 0 -31 -4 -31 -9 0 -5 -3 -17 -7 -27 -4 -12 -3 -15 5 -10 8 4 12 0 12 -11
1 -10 8 -29 16 -43 l15 -25 -4 28 c-2 15 0 30 4 33 5 3 9 -1 9 -9 0 -30 83
-67 97 -44 3 6 2 7 -3 4 -17 -10 -32 7 -23 28 4 11 8 15 8 8 1 -6 10 -9 23 -5
17 4 20 2 15 -12 -4 -10 -7 -24 -7 -32 0 -16 -55 -20 -65 -4 -3 6 -13 10 -21
10 -8 0 -13 -4 -10 -9 3 -5 0 -14 -7 -19 -7 -6 -13 -24 -12 -39 0 -24 6 -30
43 -43 23 -8 42 -18 42 -23 0 -5 7 -15 15 -24 8 -8 12 -19 9 -24 -3 -6 2 -16
12 -23 17 -13 16 -14 -3 -25 -18 -9 -22 -8 -25 7 -2 12 -13 17 -35 17 -31 0
-32 -2 -28 -33 4 -31 3 -32 -24 -27 -26 4 -29 2 -33 -25 -6 -38 14 -40 46 -5
26 28 36 31 36 11 0 -12 21 -27 42 -30 12 -2 21 -16 10 -16 -7 0 -12 -6 -12
-12 0 -7 -12 -14 -26 -14 -29 -2 -45 -15 -26 -21 6 -3 12 -11 12 -18 0 -7 7
-15 15 -19 8 -3 15 -10 15 -15 0 -6 -7 -8 -15 -5 -8 4 -15 2 -15 -4 0 -16 29
-35 45 -28 9 3 14 2 11 -3 -3 -5 1 -14 9 -21 8 -7 12 -17 9 -22 -4 -6 0 -14 7
-19 18 -11 6 -21 -15 -13 -9 3 -16 14 -16 23 -1 13 -2 13 -12 -3 -6 -11 -12
-29 -13 -40 -4 -34 -5 -36 -12 -35 -22 4 -43 -2 -43 -11 0 -5 8 -10 18 -11 13
0 12 -2 -5 -9 -21 -8 -21 -11 -9 -40 7 -17 16 -31 19 -31 4 1 12 1 18 1 7 0 8
11 4 30 -7 34 1 39 21 13 16 -21 18 -37 4 -28 -5 3 -10 1 -10 -4 0 -6 6 -11
13 -11 28 0 67 -68 67 -116 0 -13 5 -25 10 -25 6 -1 15 -3 20 -4 6 -1 16 -4
23 -5 6 -1 -4 -6 -23 -9 -19 -4 -38 -2 -41 3 -4 5 -12 5 -18 2 -15 -10 -14
-29 2 -20 8 5 9 4 2 -4 -5 -6 -22 -12 -37 -14 -22 -2 -25 -6 -18 -18 8 -11 12
-12 18 -3 4 7 18 11 30 10 13 -1 18 -5 13 -10 -12 -12 -2 -39 10 -31 5 3 9 0
9 -5 0 -6 -4 -11 -10 -11 -5 0 -10 -7 -10 -16 0 -8 -4 -12 -10 -9 -5 3 -10 -2
-10 -11 0 -16 -1 -16 -15 2 -13 18 -14 17 -15 -18 0 -26 4 -38 14 -38 24 0 69
-27 54 -33 -10 -4 -10 -8 2 -16 20 -15 33 -14 27 2 -3 8 3 13 14 13 24 0 24
-5 2 -23 -17 -13 -17 -14 3 -8 23 6 63 -28 45 -39 -5 -4 -14 2 -20 11 -9 15
-10 13 -11 -14 0 -18 -5 -33 -11 -33 -6 0 -9 7 -5 15 3 8 1 15 -4 15 -13 0
-13 -16 0 -40 8 -15 6 -20 -10 -25 -11 -3 -20 -11 -20 -16 0 -6 5 -7 10 -4 14
9 13 -8 -2 -23 -9 -9 -7 -11 10 -7 12 2 24 0 27 -6 4 -5 1 -10 -4 -10 -6 -1
-15 -3 -21 -4 -5 -1 -13 -3 -17 -4 -5 -1 0 -6 10 -12 20 -12 13 -31 -8 -22 -8
3 -15 0 -15 -6 0 -6 3 -10 8 -10 22 4 29 -3 24 -26 -2 -14 0 -25 5 -25 5 0 10
-7 10 -14 0 -8 -5 -14 -11 -13 -6 1 -10 -6 -8 -17 2 -11 -1 -15 -8 -11 -7 4
-9 19 -4 38 6 28 5 30 -10 18 -14 -11 -17 -10 -25 10 -5 13 -10 18 -10 10 -1
-8 -4 -12 -7 -8 -3 3 -3 11 1 17 5 8 11 8 21 -1 25 -21 25 -3 0 24 -20 21 -21
27 -8 32 8 3 12 8 8 12 -3 3 1 17 9 30 9 13 11 23 5 23 -5 0 -9 3 -9 8 4 21
-3 31 -16 26 -8 -4 -21 -1 -28 4 -8 7 -18 7 -27 2 -11 -7 -12 -10 -2 -10 7 0
11 -4 7 -9 -3 -6 4 -15 15 -21 17 -9 20 -8 21 7 0 16 1 15 8 -2 13 -31 6 -50
-20 -55 -13 -3 -25 -11 -27 -19 -3 -12 0 -12 12 -1 13 10 16 10 16 -3 0 -8 -9
-17 -21 -20 -12 -3 -18 -10 -15 -15 3 -6 -7 -24 -24 -41 -31 -31 -28 -42 14
-48 26 -4 27 -5 9 -28 -13 -16 -15 -17 -10 -2 4 9 2 17 -3 17 -15 0 -12 -28 3
-37 7 -4 13 -19 13 -33 2 -36 15 -90 24 -90 9 0 30 46 31 68 0 15 1 15 8 -1 4
-10 10 -18 14 -18 27 3 37 -1 38 -16 0 -14 2 -13 9 5 5 12 17 22 27 22 13 0
14 -3 5 -12 -7 -7 -12 -21 -12 -31 0 -15 -5 -18 -25 -14 -14 2 -24 2 -21 -1 8
-8 -21 -32 -41 -33 -10 0 -13 -3 -5 -6 21 -8 13 -21 -10 -15 -14 3 -19 1 -14
-6 3 -6 2 -13 -4 -17 -5 -3 -10 -1 -10 6 0 8 -4 8 -15 -1 -12 -10 -13 -16 -4
-26 9 -11 8 -14 -5 -14 -12 0 -16 7 -14 26 2 21 -2 27 -19 30 -15 3 -23 -1
-23 -11 0 -8 -6 -15 -13 -15 -9 0 -12 -10 -9 -30 3 -19 8 -27 16 -23 6 3 2 -4
-9 -16 -11 -13 -31 -27 -44 -32 -22 -9 -23 -10 -7 -28 16 -18 16 -20 -9 -45
-14 -14 -31 -26 -38 -26 -7 -1 0 -7 14 -15 22 -12 27 -22 27 -56 1 -71 -10
-86 -63 -86 -30 0 -45 4 -42 11 6 14 -15 34 -30 29 -6 -2 -14 8 -17 24 -5 19
-10 23 -16 14 -13 -22 -57 -5 -64 24 -4 14 -11 25 -16 25 -6 0 -10 10 -10 22
0 27 -12 16 -16 -15 -1 -12 -3 -25 -3 -29 -1 -8 -22 -5 -41 7 -25 16 -41 14
-63 -6 -11 -10 -28 -19 -36 -19 -14 0 -14 1 -1 10 13 8 12 10 -3 10 -26 0 -10
20 16 21 l22 0 -23 11 c-13 7 -22 19 -20 29 2 10 -6 25 -17 34 -16 12 -17 14
-2 9 9 -3 17 -2 17 4 0 5 -16 12 -35 14 -26 3 -40 -1 -53 -15 -16 -18 -16 -20
1 -32 19 -14 23 -49 5 -42 -7 2 -12 10 -10 17 2 8 -3 10 -12 7 -11 -4 -18 1
-22 18 -3 14 -9 23 -13 21 -4 -3 -16 9 -26 25 -22 32 -37 36 -54 15 -10 -11
-5 -19 21 -37 18 -13 40 -31 49 -39 43 -39 66 -56 90 -69 15 -7 49 -33 75 -58
27 -25 69 -61 93 -81 25 -21 52 -44 61 -52 9 -8 52 -38 95 -67 99 -65 143 -95
158 -109 7 -6 51 -30 97 -52 47 -23 113 -58 148 -77 35 -19 70 -35 78 -35 8 0
14 -4 14 -10 0 -5 5 -10 11 -10 10 0 37 -12 169 -72 36 -17 74 -34 85 -38 11
-4 36 -15 57 -24 20 -9 42 -16 50 -16 7 0 55 -20 106 -45 51 -24 111 -51 135
-59 23 -8 56 -21 72 -30 17 -9 35 -16 41 -16 6 0 25 -7 43 -16 18 -9 41 -14
51 -11 13 3 17 0 13 -9 -3 -9 2 -14 16 -14 18 0 20 3 12 19 -6 10 -7 21 -4 25
4 4 -3 9 -15 13 -12 3 -22 12 -22 20 0 10 7 14 19 10 21 -5 46 7 46 23 0 6 6
14 13 19 11 7 11 12 1 28 -10 17 -9 23 10 42 21 21 21 21 21 1 0 -39 19 -19
22 22 l3 43 30 -30 c27 -26 95 -50 82 -28 -3 5 -2 15 2 22 6 9 10 5 15 -13 3
-14 14 -27 24 -28 9 0 24 -2 32 -2 11 -1 15 -12 14 -41 -1 -48 17 -69 51 -61
14 4 25 2 25 -4 0 -5 -4 -10 -10 -10 -5 0 -10 -7 -10 -15 0 -9 6 -12 18 -9 16
5 16 5 0 -9 -24 -19 -23 -26 7 -37 25 -9 35 -30 15 -30 -6 0 -10 -16 -8 -35 1
-19 5 -35 9 -35 4 0 12 -14 18 -31 7 -21 15 -29 26 -26 8 4 18 0 22 -7 9 -14
86 -36 128 -36 14 0 24 4 20 9 -3 5 -1 12 5 16 5 3 14 -5 19 -18 8 -22 19 -26
93 -36 46 -7 121 -19 168 -27 47 -8 123 -18 170 -21 78 -5 83 -5 68 11 -9 9
-21 16 -27 16 -7 0 -7 8 -1 26 6 14 7 30 4 35 -3 6 5 20 18 33 18 16 27 37 31
76 4 29 11 56 16 60 7 4 5 16 -4 33 -7 15 -11 27 -7 27 3 0 1 5 -5 11 -13 13
-4 101 11 111 15 10 16 51 2 60 -8 6 -8 8 1 8 7 0 10 9 8 22 -3 12 0 27 6 34
17 20 18 74 2 74 -8 0 -18 12 -23 26 -13 33 -13 32 13 36 12 2 21 9 19 17 -3
12 -1 12 13 1 14 -12 18 -12 25 0 5 8 6 17 2 20 -14 9 -7 38 13 62 32 39 48
70 38 77 -4 3 -8 41 -8 83 -1 60 -5 81 -19 97 -12 14 -17 30 -14 51 3 17 -1
35 -8 41 -10 8 -9 16 2 37 15 30 19 86 5 78 -12 -8 -45 5 -34 13 18 13 34 53
28 72 -4 10 -2 19 3 19 6 0 8 10 4 22 -3 14 -1 19 6 14 8 -5 10 -2 6 9 -4 8
-1 21 5 29 7 8 10 18 9 22 -2 5 8 20 22 34 22 22 23 25 7 28 -11 2 -17 13 -17
32 0 39 20 132 31 146 6 7 4 16 -5 23 -11 10 -15 8 -19 -6 -3 -10 -5 1 -6 25
-1 26 4 45 12 47 6 3 12 21 13 40 0 19 -3 32 -8 29 -4 -3 -8 -1 -8 5 0 5 6 11
13 14 8 3 7 10 -7 26 -11 11 -16 24 -13 28 4 3 7 2 7 -4 0 -15 38 -24 46 -11
4 6 0 14 -7 19 -11 7 -12 11 -1 17 10 7 10 11 -1 21 -12 9 -18 8 -31 -4 -14
-15 -16 -15 -16 -1 0 9 6 16 14 16 15 0 46 36 46 53 0 5 -7 7 -15 3 -11 -4
-15 1 -15 19 0 19 6 25 33 30 30 6 33 10 30 33 -2 21 -1 23 5 8 8 -17 9 -17
25 -2 22 22 22 44 1 42 -9 0 -19 5 -21 12 -3 6 2 12 11 12 9 0 16 4 16 9 0 5
9 11 20 14 24 6 46 57 29 67 -7 5 -3 13 12 24 13 9 20 16 15 16 -5 0 -3 6 3
14 10 12 9 14 -7 10 -22 -6 -49 40 -31 52 6 4 15 0 20 -7 7 -12 9 -12 9 0 0 8
7 22 16 32 12 13 13 22 5 37 -8 16 -7 21 4 26 8 3 15 12 15 20 0 8 5 18 11 22
6 3 10 -1 9 -12 -6 -52 12 -59 35 -14 19 37 19 39 -2 35 -19 -2 -42 29 -43 58
0 16 21 22 58 18 6 -1 12 7 12 19 0 11 -4 20 -9 20 -5 0 -13 9 -16 20 -5 17
-8 18 -21 6 -7 -8 -19 -17 -26 -19 -10 -4 -9 -8 2 -16 11 -8 12 -11 2 -11 -7
0 -10 -4 -7 -10 3 -6 1 -10 -5 -10 -6 0 -9 -4 -6 -9 3 -5 -3 -11 -14 -14 -16
-4 -20 0 -20 19 0 16 6 24 18 25 14 0 13 2 -4 9 -15 6 -23 19 -26 44 -2 21 0
36 7 36 5 0 3 5 -5 10 -13 8 -11 11 8 16 22 6 25 14 26 85 1 29 -2 35 -17 31
-13 -3 -16 0 -11 14 4 11 14 25 23 32 16 13 11 21 -24 36 -5 2 4 17 21 31 31
27 31 28 13 46 -15 15 -17 24 -9 44 5 14 6 25 2 25 -5 0 -17 7 -28 15 -14 11
-15 15 -4 14 32 -3 51 1 45 11 -4 6 -11 8 -16 4 -6 -3 -8 5 -5 20 3 14 0 28
-5 31 -5 4 -9 17 -9 31 0 18 5 24 22 24 20 0 20 -1 4 -19 -17 -19 -17 -19 3
-14 17 4 21 13 21 43 0 21 5 40 11 42 8 3 6 10 -5 21 -13 12 -14 17 -4 18 57
3 69 7 80 21 7 9 22 18 33 21 19 5 19 5 -2 12 -32 10 -29 22 6 22 16 0 37 7
46 16 19 20 27 21 43 7 6 -6 10 -7 7 -4 -3 4 0 13 6 20 6 8 8 21 5 30 -4 9 -3
22 2 28 5 6 17 34 27 61 10 28 26 58 37 68 10 10 16 23 13 28 -4 5 11 31 32
58 21 27 43 57 50 67 11 18 12 18 12 2 1 -13 9 -18 28 -18 l26 0 -21 23 c-30
31 -28 40 14 72 19 15 39 38 45 52 9 25 29 23 29 -3 0 -8 5 -14 10 -14 8 0 14
14 8 23 -1 1 24 27 55 57 31 30 57 64 57 75 0 11 16 31 35 45 35 25 43 48 25
66 -13 13 4 64 20 64 5 0 10 6 10 13 0 8 9 22 20 32 13 12 18 25 14 40 -8 33
17 67 124 169 51 49 109 113 128 141 19 29 45 64 59 79 14 15 25 31 25 36 0 5
10 25 21 45 12 20 23 47 24 60 5 41 16 65 64 138 26 40 57 93 69 119 23 53 50
66 96 48 18 -6 53 -8 90 -4 81 9 78 8 101 21 11 6 24 11 30 12 19 2 11 46 -10
50 -11 2 -31 11 -45 21 -15 10 -55 21 -98 25 -48 5 -75 12 -79 21 -3 8 -11 14
-18 14 -12 0 -20 32 -29 115 -2 17 -4 32 -6 35 -14 26 -14 131 0 140 10 6 8
13 -9 31 -11 12 -21 31 -21 41 0 11 -4 16 -10 13 -6 -4 -5 -18 4 -40 12 -27
12 -33 1 -29 -9 4 -15 -10 -20 -47 -7 -48 -9 -51 -21 -34 -8 10 -14 29 -14 41
0 12 -8 25 -17 29 -26 9 -28 7 -25 -24 2 -17 -2 -33 -10 -38 -8 -4 -22 -19
-31 -33 l-17 -25 -12 31 c-13 36 -48 64 -48 39 0 -8 -5 -15 -11 -15 -5 0 -8
-4 -4 -9 3 -5 -6 -11 -21 -13 -20 -2 -29 -12 -39 -41 -7 -21 -13 -40 -13 -43
0 -20 -27 -64 -40 -64 -8 0 -21 -8 -28 -17 -12 -17 -14 -16 -33 6 -14 16 -25
21 -33 14 -11 -8 -33 -10 -40 -3 -2 1 -15 4 -30 6 -21 2 -28 -2 -28 -14 -1
-13 -4 -12 -13 6 -10 17 -15 20 -25 10 -9 -9 -12 -9 -12 4 0 9 7 18 15 22 20
7 19 42 -2 56 -17 11 -17 11 0 6 22 -7 40 32 25 52 -6 6 -7 12 -2 12 5 0 2 6
-6 13 -27 22 -42 57 -31 71 7 9 7 16 -1 24 -9 9 -7 12 8 12 15 0 16 2 5 9 -10
7 -12 21 -7 55 6 36 4 50 -9 62 -9 9 -15 28 -14 43 3 37 -11 91 -23 91 -6 0
-8 3 -5 6 4 4 13 1 21 -5 12 -10 14 -9 9 8 -5 18 -14 25 -33 23 -3 0 -6 7 -6
17 0 13 6 17 19 13 16 -4 18 -2 9 15 -7 12 -7 25 -1 34 12 19 11 25 -3 41 -7
7 -23 33 -35 58 -13 25 -23 41 -23 37 0 -4 -9 -3 -20 3 -15 8 -19 17 -14 33 6
22 6 22 -11 2 -9 -11 -14 -14 -10 -7 7 13 -50 74 -60 64 -3 -3 -5 0 -5 6 0 6
4 14 10 17 6 3 -1 17 -15 31 -28 28 -32 44 -11 44 7 0 18 6 24 13 8 9 0 19
-29 40 -21 16 -39 24 -39 18 0 -6 -7 -8 -15 -5 -18 7 -20 30 -2 37 6 3 -2 6
-19 6 -35 1 -64 27 -64 58 0 16 -8 22 -34 27 -19 4 -37 13 -40 21 -3 8 -12 12
-21 9 -9 -4 -15 -1 -15 7 -1 8 -15 23 -32 34 -17 11 -32 25 -32 30 -1 18 -50
66 -63 61 -7 -3 -13 -1 -13 4 0 6 -9 10 -19 10 -11 0 -23 9 -26 20 -11 34 -55
79 -70 73 -8 -3 -23 -2 -32 2 -16 6 -15 8 7 20 l25 14 -32 7 c-23 4 -36 15
-45 35 -7 16 -19 27 -25 24 -7 -2 -14 0 -14 5 -1 6 -2 16 -3 23 0 6 -12 14
-25 15 -13 2 -32 14 -42 25 -18 22 -18 21 -6 -13 7 -19 16 -42 22 -50 12 -19
16 -150 4 -150 -5 0 -9 -7 -9 -15 0 -28 -38 2 -45 36 -9 40 -27 74 -58 109
-15 16 -40 56 -56 89 -34 66 -46 78 -65 62 -7 -6 -16 -8 -19 -5 -3 4 -9 -5
-12 -19 -9 -36 -43 -48 -91 -31 -21 8 -46 14 -55 14 -9 0 -21 10 -27 23 -6 12
-11 16 -11 9 -1 -9 -6 -10 -20 -3 -10 6 -35 10 -54 9 -21 -1 -42 6 -52 15 -9
10 -19 18 -23 18 -4 1 -20 3 -36 5 -16 2 -33 9 -37 15 -4 7 -17 14 -29 16 -16
2 -21 -1 -16 -12 4 -10 -1 -15 -14 -15 -11 0 -20 -5 -20 -11 0 -6 -6 -9 -14
-6 -7 3 -23 -1 -35 -9 -11 -8 -35 -17 -52 -19 -17 -2 -36 -9 -43 -14 -10 -8
-16 -8 -25 2 -8 11 -22 12 -58 5 -27 -5 -54 -9 -60 -10 -7 -1 -13 -5 -13 -10
0 -5 -16 -16 -35 -24 -20 -8 -33 -19 -30 -24 4 -6 0 -13 -9 -16 -8 -3 -18 -20
-22 -37 -10 -42 -9 -38 -23 -72 -9 -22 -10 -35 -2 -47 9 -15 7 -19 -14 -24
-14 -4 -29 -4 -32 -1 -3 4 -15 2 -26 -4 -10 -6 -17 -7 -14 -2 3 5 7 35 8 66 1
31 5 57 9 57 10 0 30 63 30 94 0 18 5 26 12 24 16 -6 48 34 48 60 0 25 26 89
40 97 10 6 27 39 38 75 2 8 5 29 6 45 0 17 4 33 8 36 4 3 9 17 10 32 1 15 6
27 10 27 4 0 8 14 8 32 0 30 -1 31 -14 12 -8 -10 -17 -16 -21 -13 -11 11 -11
69 0 66 6 -1 9 -11 8 -22 -3 -20 -3 -20 13 0 13 17 16 18 24 5 8 -12 10 -9 10
12 0 15 5 30 11 34 7 4 2 12 -13 23 -26 18 -34 41 -19 50 6 4 7 12 1 21 -8 12
-10 12 -10 1 0 -8 -8 -19 -17 -26 -14 -11 -15 -17 -6 -38 11 -23 9 -26 -13
-31 -17 -5 -24 -13 -24 -32 0 -21 -3 -24 -21 -19 -19 6 -21 4 -16 -14 3 -14 0
-21 -9 -21 -8 0 -14 -6 -14 -13 0 -7 -9 -19 -19 -27 -15 -10 -18 -18 -10 -32
6 -10 14 -16 20 -13 5 4 9 1 9 -4 0 -6 -6 -11 -14 -11 -8 0 -16 -6 -19 -12 -2
-7 -8 -10 -12 -6 -4 4 -3 14 3 21 9 10 8 19 -3 34 -10 15 -12 29 -6 51 5 17 7
33 3 36 -3 3 0 6 7 6 7 0 12 10 11 23 -4 42 0 52 23 62 12 6 22 18 22 27 0 9
4 20 8 24 4 4 7 15 7 25 0 19 33 36 38 20 2 -5 12 -1 23 10 20 20 26 34 9 24
-5 -3 -10 -2 -10 4 0 5 6 12 13 15 10 5 10 7 0 12 -15 7 -18 70 -4 79 5 3 9
34 9 69 0 35 3 69 7 76 4 6 -1 23 -11 38 -20 30 -24 51 -11 68 4 7 7 16 6 20
-3 13 13 48 25 56 6 4 11 13 11 20 1 7 7 12 15 10 10 -2 11 0 2 10 -6 8 -10
23 -8 33 2 16 9 19 34 17 26 -3 34 1 41 20 5 13 16 30 26 38 14 12 18 12 27
-1 8 -11 9 -10 4 4 -3 10 -6 25 -6 32 0 7 -8 12 -17 11 -10 0 -18 7 -20 19 -1
11 0 14 3 8 8 -19 27 -16 46 6 9 11 16 21 15 23 -1 2 4 -3 10 -11 11 -12 13
-12 19 3 4 10 10 14 13 9 10 -14 61 -33 61 -23 0 6 7 10 15 10 8 0 15 -4 15
-10 0 -5 -5 -10 -12 -10 -6 0 -8 -3 -5 -6 4 -4 14 -1 22 6 13 11 18 10 28 -4
7 -9 22 -18 33 -18 16 -2 19 -7 16 -25 -4 -20 7 -29 22 -20 7 4 66 -82 66 -96
0 -7 5 -18 10 -23 6 -6 12 -40 15 -76 5 -85 13 -115 32 -122 8 -3 12 -10 9
-15 -4 -5 -1 -15 6 -23 7 -7 13 -22 12 -33 0 -11 5 -30 13 -42 7 -12 13 -29
13 -38 0 -8 5 -15 10 -15 6 0 10 -5 10 -12 0 -13 115 -126 163 -159 17 -13 34
-26 37 -30 9 -11 70 -40 70 -32 0 4 6 0 13 -9 16 -21 86 -58 110 -58 10 0 20
-6 22 -12 3 -7 23 -13 44 -14 21 -1 47 -5 57 -9 11 -5 33 -10 49 -11 46 -4 99
-15 105 -23 3 -4 20 -7 38 -6 19 0 36 -3 39 -8 2 -4 13 -1 25 7 14 10 28 12
50 5 17 -4 34 -6 39 -4 4 3 37 8 74 11 36 2 77 9 91 14 14 6 29 8 34 5 15 -9
41 7 51 31 4 13 16 24 24 24 18 0 18 39 0 52 -9 7 27 13 50 8 6 -1 7 1 3 5 -9
9 15 34 26 27 5 -3 14 2 20 11 9 12 21 13 53 8 34 -7 60 -7 93 -2 5 1 10 23
12 61 1 8 7 20 14 27 10 10 10 19 -3 44 -8 16 -15 46 -15 65 0 24 -4 34 -16
34 -12 0 -8 9 14 33 39 41 41 83 4 80 -14 -1 -19 1 -12 3 6 3 12 14 12 25 0
10 5 19 10 19 6 0 10 5 10 10 0 6 -7 10 -15 10 -11 0 -16 11 -16 38 -2 118 -5
144 -22 154 -10 5 -28 31 -41 57 -22 43 -56 83 -56 67 0 -4 -13 2 -28 12 -26
19 -41 62 -21 62 5 0 9 -4 9 -10 0 -5 5 -10 10 -10 22 0 8 21 -30 42 -22 13
-42 30 -45 39 -3 9 -17 25 -32 35 -15 11 -36 29 -48 42 -12 12 -29 22 -38 22
-8 0 -17 7 -21 15 -3 8 -13 15 -23 15 -10 0 -27 7 -37 15 -10 8 -23 12 -28 9
-6 -4 -22 -1 -36 6 -73 34 -73 34 -180 45 -29 3 -76 15 -104 26 -51 20 -90 18
-85 -4 2 -14 -100 -19 -109 -6 -3 5 -10 6 -16 3 -6 -4 -14 -1 -18 7 -7 11 -13
11 -32 1 -28 -15 -158 -23 -158 -10 0 5 -7 17 -16 25 -14 15 -18 15 -45 -1
-16 -10 -43 -18 -59 -18 -17 -1 -30 -4 -30 -8 0 -12 -39 -19 -46 -9 -3 5 -14
9 -24 9 -11 0 -17 5 -15 13 7 17 -11 41 -24 33 -6 -4 -11 -15 -12 -24 0 -12
-3 -11 -9 6 -12 27 -31 28 -48 2 -11 -19 -10 -21 20 -27 18 -4 36 -6 41 -5 12
3 8 -16 -5 -22 -10 -5 -10 -7 0 -12 13 -6 17 -34 4 -34 -5 0 -18 9 -30 20
l-22 21 -1 -23 c0 -13 -3 -17 -6 -10 -2 6 -9 10 -14 6 -17 -10 -30 6 -19 26
11 20 -4 37 -30 35 -39 -3 -96 -19 -102 -29 -5 -8 -8 -7 -8 2 0 20 -23 13 -51
-16 -26 -27 -45 -64 -31 -60 4 2 19 -10 34 -25 17 -17 22 -27 13 -27 -8 0 -12
-6 -9 -14 4 -11 -3 -14 -30 -13 -20 1 -36 5 -36 10 0 13 -40 47 -55 47 -8 0
-15 5 -15 10 0 6 -13 10 -28 10 -15 0 -33 5 -40 12 -7 7 -12 8 -12 3 0 -6 -5
-3 -10 5 -6 9 -10 11 -10 3 0 -7 -7 -10 -17 -6 -15 5 -16 3 -5 -8 17 -19 15
-28 -7 -22 -18 4 -31 24 -46 68 -7 19 -8 19 -17 -5 -10 -24 -10 -24 -20 -4 -5
11 -24 24 -41 30 -22 6 -33 16 -35 32 -4 24 -4 24 -44 26 -28 2 -38 -9 -15
-17 9 -3 8 -8 -3 -22 -8 -10 -15 -23 -16 -29 0 -6 -2 -17 -2 -24 -1 -7 -7 -10
-13 -7 -5 4 -20 -1 -31 -12 -20 -16 -21 -17 -15 0 4 10 2 17 -6 17 -8 0 -7 4
3 10 13 9 13 11 0 20 -8 5 -20 8 -27 5 -15 -5 -29 15 -16 24 5 3 6 17 2 31 -4
15 -7 18 -8 8 -1 -9 -8 -24 -17 -33 -15 -14 -17 -14 -29 2 -8 10 -17 14 -22 9
-4 -5 -2 -11 5 -13 17 -6 15 -23 -3 -23 -8 0 -14 -3 -14 -7 5 -31 -2 -39 -31
-35 -16 2 -30 9 -30 14 0 6 -9 8 -21 5 -12 -3 -22 0 -25 8 -8 20 -44 9 -76
-24 -22 -23 -28 -36 -23 -53 4 -15 3 -19 -3 -10 -6 9 -18 11 -36 6 -15 -3 -25
-9 -22 -12 9 -8 -14 -32 -30 -32 -8 0 -14 5 -14 11 0 5 4 8 9 5 5 -3 11 1 15
9 3 8 1 15 -5 15 -6 0 -8 4 -5 8 11 18 -40 6 -59 -13 -21 -21 -57 -27 -72 -11
-5 5 -3 6 5 2 6 -4 12 -2 12 3 0 6 -7 11 -15 11 -9 0 -15 -10 -15 -26 0 -14
-4 -23 -9 -20 -5 3 -14 -1 -21 -9 -11 -13 -17 -12 -47 6 -29 18 -37 19 -44 8
-11 -18 -11 -26 1 -34 18 -11 -1 -36 -22 -29 -13 4 -18 2 -14 -4 3 -5 -11 -13
-32 -17 -20 -3 -46 -12 -57 -19 -11 -7 -41 -16 -68 -19 -50 -7 -153 -65 -163
-92 -4 -8 -13 -15 -21 -15 -8 0 -12 -4 -9 -8 3 -5 -7 -22 -22 -39 -15 -17 -43
-52 -62 -78 -19 -26 -49 -61 -66 -79 -18 -17 -44 -50 -59 -73 -15 -23 -33 -44
-41 -47 -8 -3 -14 -12 -14 -19 0 -19 -39 -108 -55 -127 -7 -8 -16 -40 -19 -70
-9 -85 -10 -90 -17 -90 -7 0 -23 -59 -20 -74 1 -4 -4 -14 -10 -22 -9 -11 -9
-14 1 -14 7 0 10 -6 7 -14 -3 -8 -1 -17 6 -20 9 -3 8 -7 -2 -14 -9 -7 -11 -19
-7 -37 4 -16 2 -33 -5 -41 -9 -11 -9 -18 -1 -26 8 -8 6 -22 -11 -52 -12 -23
-25 -43 -28 -46 -3 -3 -5 -30 -4 -60 1 -30 -1 -60 -6 -65 -8 -11 -21 -95 -14
-95 2 0 16 5 30 10 18 7 25 15 21 25 -3 8 -1 15 4 15 6 0 10 -6 10 -13 0 -10
16 -13 65 -12 36 1 68 -1 70 -6 11 -17 52 -1 86 34 21 20 44 37 53 37 9 0 16
5 16 11 0 5 5 7 10 4 6 -4 17 -1 25 5 11 9 19 6 39 -15 15 -16 27 -22 31 -15
4 7 17 0 33 -18 15 -16 35 -32 45 -35 9 -4 17 -14 17 -22 0 -13 6 -15 30 -10
19 4 36 2 45 -5 8 -7 26 -10 40 -8 13 3 26 0 28 -6 2 -7 14 -7 40 1 20 6 53 9
73 6 21 -3 53 0 73 5 20 6 59 16 86 22 73 17 165 51 165 61 0 5 18 12 40 15
22 4 40 10 40 15 0 5 9 9 19 9 10 0 21 7 25 15 3 8 30 26 60 40 29 13 56 31
59 39 3 8 34 23 68 33 43 12 64 24 67 37 5 18 6 18 17 2 11 -15 14 -13 25 16
15 39 17 45 19 58 2 15 31 0 31 -16 0 -8 -4 -14 -10 -14 -5 0 -7 -7 -4 -15 4
-10 10 -12 18 -6 12 10 60 -22 49 -33 -3 -3 -12 -1 -20 6 -8 6 -25 12 -37 13
-20 0 -22 -3 -19 -34 2 -20 9 -38 15 -42 6 -4 3 -11 -8 -19 -18 -11 -18 -11 3
-7 15 3 20 1 16 -9 -6 -16 -43 -19 -43 -4 0 6 -5 10 -11 10 -5 0 -8 -4 -4 -9
3 -6 -4 -26 -15 -45 -19 -35 -15 -47 8 -24 9 9 12 7 12 -9 0 -12 -6 -24 -12
-27 -7 -3 -4 -4 7 -3 16 2 21 -5 23 -35 3 -38 -13 -82 -27 -74 -4 3 -4 -14 2
-37 8 -36 6 -49 -11 -81 -12 -22 -19 -43 -16 -47 3 -5 -2 -21 -10 -37 -8 -16
-13 -32 -9 -35 3 -3 -2 -13 -11 -22 -9 -9 -16 -27 -16 -40 0 -35 -10 -54 -26
-48 -8 3 -12 9 -9 13 3 5 1 11 -5 15 -5 3 -10 1 -10 -4 0 -6 -13 -11 -30 -11
-35 0 -39 -14 -9 -31 13 -7 19 -17 16 -29 -3 -14 0 -17 12 -13 9 2 2 -8 -16
-24 -31 -27 -32 -30 -18 -56 8 -15 10 -25 5 -22 -6 4 -10 1 -10 -4 0 -6 5 -11
10 -11 6 0 10 -5 10 -11 0 -5 -5 -7 -11 -3 -7 4 -10 1 -7 -7 3 -8 15 -15 27
-17 22 -3 22 -4 4 -17 -24 -19 -37 -19 -30 0 4 8 2 17 -3 20 -6 4 -10 17 -10
31 0 16 -6 24 -17 24 -15 0 -15 -2 -4 -9 8 -5 11 -16 8 -25 -4 -9 -2 -16 3
-16 6 0 10 -4 10 -10 0 -5 -15 -10 -32 -11 -28 0 -30 -2 -13 -9 l20 -9 -20 -1
c-21 -1 -65 -33 -65 -47 0 -4 11 -16 25 -26 23 -16 24 -16 35 0 11 17 11 17 6
1 -5 -18 10 -26 16 -9 2 6 15 11 29 13 15 2 42 17 61 33 19 17 46 39 59 50
l24 19 -25 6 c-25 6 -25 6 5 12 22 5 33 1 43 -14 8 -11 21 -17 29 -14 22 9 63
-4 63 -20 0 -8 6 -11 18 -7 13 5 14 3 5 -7 -12 -13 -7 -40 8 -40 4 0 5 7 2 17
-4 11 -3 14 6 9 8 -5 10 -18 7 -32 -4 -13 -3 -24 1 -25 5 0 17 -3 28 -6 11 -2
28 -5 37 -6 9 -1 15 -4 12 -8 -2 -4 3 -12 10 -19 12 -9 19 -7 35 9 27 27 28
27 39 -11 16 -53 20 -77 13 -76 -3 1 -20 -1 -37 -4 -27 -6 -30 -10 -26 -36 4
-27 0 -31 -42 -47 -48 -19 -64 -42 -21 -31 14 4 25 2 25 -4 0 -5 -7 -10 -15
-10 -8 0 -15 -4 -15 -10 0 -5 -6 -10 -13 -10 -7 0 -26 -13 -42 -30 -16 -17
-39 -30 -52 -30 -13 0 -26 -7 -29 -15 -4 -8 -13 -15 -20 -15 -8 0 -18 -8 -21
-17 -15 -39 -61 -58 -92 -39 -11 7 -13 5 -8 -7 4 -10 1 -17 -6 -18 -85 -4
-127 -23 -127 -60 0 -18 -21 -27 -67 -27 -26 -1 -31 23 -8 32 8 3 15 15 15 26
0 20 18 60 32 70 3 3 5 31 5 63 -1 31 3 59 8 61 6 3 5 5 -1 5 -6 1 -9 12 -6
26 3 20 0 25 -16 25 -15 0 -19 -5 -15 -19 3 -10 -1 -22 -8 -26 -7 -5 -10 -4
-6 2 4 6 0 13 -8 16 -8 4 -12 1 -9 -6 10 -26 -86 -87 -129 -82 -15 2 -25 -1
-21 -6 3 -5 0 -9 -5 -9 -6 0 -11 5 -11 11 0 8 -5 8 -15 -1 -23 -19 -20 -29 21
-73 9 -9 4 -16 -18 -30 -19 -11 -28 -23 -24 -32 4 -11 -2 -15 -19 -15 -20 0
-25 -5 -25 -25 0 -14 7 -28 15 -31 8 -4 15 -10 15 -15 0 -4 -7 -6 -16 -2 -11
4 -15 0 -14 -13 5 -40 -1 -53 -29 -67 -27 -13 -30 -13 -34 4 -3 11 -12 19 -20
19 -17 0 -29 -34 -15 -48 5 -5 3 -14 -6 -21 -12 -10 -18 -9 -33 6 -11 11 -17
25 -15 31 5 17 -23 42 -47 42 -12 0 -21 5 -21 11 0 14 -63 7 -68 -8 -2 -7 3
-13 12 -13 9 0 16 -5 16 -10 0 -9 -31 1 -48 15 -2 2 5 10 14 20 21 20 9 68
-19 73 -12 3 -15 -1 -10 -14 5 -13 3 -15 -8 -9 -12 7 -12 6 -1 -7 10 -13 9
-16 -9 -21 -12 -3 -18 -10 -14 -17 4 -6 1 -9 -7 -8 -8 2 -12 -4 -10 -16 3 -16
1 -18 -10 -8 -11 9 -20 8 -38 -5 -18 -12 -22 -13 -16 -2 4 8 1 6 -7 -4 -11
-13 -17 -15 -23 -6 -4 7 -1 17 7 23 8 6 15 22 16 36 1 14 0 19 -3 13 -8 -19
-22 -16 -29 7 -4 11 -11 18 -16 15 -5 -4 -9 3 -9 14 0 24 -11 33 -29 22 -9 -6
-10 -11 -2 -15 18 -11 13 -26 -9 -26 -11 0 -20 -4 -20 -10 0 -5 5 -10 10 -10
6 0 10 -12 10 -27 0 -22 2 -25 10 -13 8 12 10 11 12 -7 4 -51 2 -58 -12 -58
-8 -1 -14 -6 -13 -13 2 -7 -2 -12 -7 -12 -6 0 -10 -9 -10 -20 0 -11 -7 -20
-15 -20 -14 0 -19 12 -16 33 0 4 -4 7 -10 7 -6 0 -24 14 -38 31 -25 28 -29 30
-43 15 -10 -9 -18 -11 -20 -5 -2 5 -14 11 -27 12 -27 2 -54 46 -40 68 7 11 9
11 9 -3 0 -10 6 -18 13 -18 16 0 46 20 30 20 -6 0 -13 7 -15 16 -2 10 -15 18
-32 20 -24 2 -27 0 -23 -17 3 -11 0 -35 -7 -52 -17 -41 -11 -63 12 -45 13 11
14 11 7 -1 -6 -11 -4 -13 8 -8 10 3 17 2 17 -3 0 -6 9 -10 20 -10 11 0 20 -3
20 -7 -1 -19 -19 -34 -37 -31 -11 1 -28 -4 -38 -12 -15 -13 -19 -12 -31 5 -8
10 -14 14 -14 8 0 -6 -10 -13 -23 -17 -15 -3 -23 -13 -23 -27 0 -19 4 -21 43
-15 34 4 44 2 52 -12 10 -16 10 -16 11 1 0 9 -4 17 -10 17 -5 0 -7 6 -4 13 3
9 16 12 34 9 18 -3 28 -9 24 -16 -3 -6 2 -2 10 8 9 11 16 27 16 35 0 12 2 13
9 3 6 -10 10 -10 20 2 7 8 19 12 28 9 12 -5 12 -7 1 -14 -11 -7 -10 -11 2 -19
13 -9 13 -10 0 -11 -8 -1 -20 -1 -27 0 -18 2 -26 -18 -14 -33 9 -10 8 -15 -4
-20 -8 -3 -15 0 -15 6 0 21 -38 -28 -42 -53 -1 -13 -9 -25 -15 -25 -27 -3 -27
-5 -9 -19 13 -10 15 -15 6 -15 -7 0 -22 8 -33 18 -19 16 -20 16 -14 0 4 -13 1
-18 -11 -18 -22 -1 -69 -36 -60 -46 11 -10 -11 -44 -28 -44 -8 0 -13 -4 -10
-9 8 -12 -14 -19 -36 -13 -22 5 -23 21 -3 28 8 4 15 12 15 20 0 12 -4 12 -20
2 -25 -16 -35 -6 -21 21 7 12 8 32 4 48 -4 16 -6 34 -4 42 1 7 -4 11 -11 9 -7
-3 -13 -12 -13 -21 0 -9 -4 -18 -9 -19 -12 -4 -19 71 -8 86 11 15 9 46 -3 43
-5 -1 -9 -4 -8 -7 1 -3 -7 -7 -18 -7 -17 -2 -18 3 -13 38 4 26 3 39 -5 39 -18
0 -13 58 7 70 16 11 16 11 -2 6 -13 -4 -17 -2 -13 7 3 8 1 20 -3 28 -6 8 -4
16 3 21 8 5 4 8 -10 8 -24 0 -34 30 -10 30 6 1 -3 7 -21 15 -18 8 -31 18 -28
23 3 5 -2 21 -10 36 -18 35 -17 37 1 30 9 -4 15 0 16 7 1 24 7 51 13 56 3 3
-9 13 -27 22 -30 15 -32 20 -34 69 -1 30 2 50 8 46 5 -3 7 -9 4 -14 -3 -5 -1
-11 5 -15 6 -4 8 -11 5 -16 -10 -15 7 -10 28 9 18 15 20 15 14 1 -3 -11 3 -20
19 -28 14 -6 27 -11 29 -11 6 0 -1 42 -14 94 -8 33 -7 42 7 52 14 10 15 16 5
31 -6 10 -16 17 -23 15 -7 -1 -10 7 -8 22 2 14 0 25 -4 26 -26 1 -30 -2 -25
-19 3 -11 -1 -22 -8 -25 -9 -3 -12 -17 -8 -43 4 -34 1 -41 -26 -61 -32 -23
-51 -22 -51 3 0 8 -8 19 -17 24 -12 7 -13 11 -5 11 10 0 9 5 -4 17 -11 11 -13
18 -5 21 17 6 13 22 -5 22 -10 0 -14 7 -12 22 2 11 -3 23 -10 26 -7 2 -13 -2
-11 -9 3 -27 -1 -38 -18 -42 -17 -4 -17 -5 0 -6 9 0 17 -8 17 -17 0 -9 -6 -14
-12 -11 -7 2 -21 -2 -30 -11 -17 -14 -18 -13 -19 14 -1 16 -1 32 0 37 0 4 -4
7 -9 7 -6 0 -10 12 -10 26 0 14 -4 33 -9 42 -15 28 -17 75 -3 79 6 3 12 -2 12
-11 0 -8 5 -18 12 -22 7 -5 9 -1 6 12 -7 27 17 48 40 35 16 -9 16 -10 0 -16
-15 -6 -15 -8 0 -25 26 -32 35 -12 28 64 -3 39 -9 100 -12 136 -3 36 -9 86
-14 111 -5 26 -6 68 -1 95 4 31 2 78 -5 124 -15 86 -14 150 1 150 6 0 5 4 -2
8 -18 12 -24 104 -7 127 19 25 18 35 -3 35 -15 0 -15 3 4 18 16 12 20 21 13
32 -5 8 -6 18 -3 24 4 5 8 37 10 70 3 62 38 176 54 176 16 0 10 26 -10 44 -15
14 -18 23 -11 42 7 16 6 23 -2 21 -6 -1 -13 4 -16 12 -3 8 0 11 7 7 6 -4 11
-3 11 2 0 6 11 9 25 8 14 0 25 -4 25 -8 0 -5 5 -8 10 -8 20 0 9 21 -15 30 -14
5 -25 16 -25 24 0 10 6 13 18 9 15 -6 15 -4 -2 15 -17 20 -18 22 -2 22 9 0 14
-4 11 -10 -3 -5 1 -10 9 -10 15 0 19 7 19 41 0 11 7 15 24 13 l25 -2 -21 22
c-24 26 -19 36 18 36 21 0 23 2 11 10 -12 8 -10 10 10 11 23 0 23 1 5 9 -11 4
-24 4 -29 -1 -6 -5 -19 -9 -30 -9 -20 1 -20 1 3 20 13 11 29 20 36 20 6 0 20
9 30 20 14 15 15 20 4 21 -8 0 -3 5 11 10 14 6 39 8 55 5 25 -5 32 -2 43 21
17 38 15 44 -12 37 -13 -3 -27 -1 -30 5 -4 6 -2 11 3 11 6 0 11 12 11 26 0 22
-3 24 -14 15 -17 -14 -32 4 -27 33 1 11 -2 16 -8 12 -6 -4 -11 -14 -11 -23 0
-10 -6 -14 -20 -10 -15 4 -20 1 -18 -11 2 -11 -3 -16 -14 -16 -10 1 -18 -2
-18 -8 0 -5 -4 -6 -10 -3 -5 3 -10 -2 -10 -12 0 -15 -2 -14 -16 5 -8 12 -20
20 -25 17 -5 -4 -9 1 -9 9 0 8 -10 18 -22 22 -26 8 -48 28 -48 44 0 20 29 42
48 36 16 -5 18 0 18 46 0 47 2 53 21 54 13 1 19 -4 17 -11 -3 -7 3 -16 13 -19
17 -7 17 -8 0 -21 -23 -17 -29 -80 -7 -80 8 0 16 10 18 22 3 20 6 21 24 12 15
-8 19 -8 14 0 -4 6 0 11 9 11 9 0 13 -4 10 -10 -3 -5 -2 -10 4 -10 5 0 11 6
14 13 4 10 7 10 18 0 19 -19 37 -16 44 8 4 11 12 18 18 16 14 -4 49 32 42 43
-3 4 2 13 10 20 12 10 15 10 15 -1 0 -11 2 -11 9 1 13 19 5 30 -20 30 -18 0
-19 2 -5 15 21 22 66 10 66 -18 0 -16 3 -18 12 -9 9 9 9 15 0 24 -18 18 -15
36 8 43 17 5 20 12 14 39 -5 29 -3 34 17 39 22 6 19 22 -4 22 -7 0 -13 10 -15
23 -2 15 -9 22 -20 20 -12 -2 -17 -14 -17 -47 0 -27 -5 -46 -13 -49 -9 -3 -12
3 -10 14 2 12 -3 19 -12 19 -8 0 -20 4 -27 8 -6 4 -14 3 -18 -3 -3 -5 -1 -10
5 -10 7 0 9 -12 6 -32 -3 -20 0 -36 7 -40 8 -5 7 -8 -5 -8 -9 0 -20 -9 -23
-20 -4 -11 -11 -18 -16 -15 -5 4 -9 2 -9 -4 0 -5 -9 -13 -21 -16 -12 -4 -18
-12 -15 -21 3 -9 -1 -14 -14 -14 -12 0 -17 -5 -14 -14 9 -24 -33 -26 -44 -2
-10 22 -7 110 4 128 3 5 -3 12 -14 15 -23 6 -30 29 -34 111 -3 43 -5 50 -15
36 -15 -20 -43 -12 -44 13 0 16 -1 15 -9 -2 -6 -14 -7 -5 -6 29 2 28 8 52 14
54 7 2 12 8 12 14 0 6 -6 8 -14 5 -19 -8 -28 16 -34 88 -2 33 -9 63 -15 67 -8
5 -6 8 4 8 9 0 22 6 28 14 9 11 8 18 -6 31 -19 19 -20 39 -10 195 4 61 11 98
19 105 8 5 12 18 10 28 -2 9 1 17 7 17 5 0 19 19 29 43 21 46 86 117 109 117
7 0 13 6 13 14 0 19 33 26 48 10 11 -12 17 -11 37 2 15 10 22 21 18 31 -5 12
-2 15 9 10 11 -4 20 3 27 21 13 30 46 56 61 47 6 -3 21 6 34 20 l24 26 17 -23
c10 -14 16 -17 14 -8 -3 29 1 38 22 43 12 3 18 10 14 17 -4 7 2 9 19 6 15 -3
26 0 26 7 0 6 7 2 15 -9 14 -18 14 -17 9 16 l-6 35 26 -34 c26 -36 38 -31 12
5 -16 22 -4 46 20 37 9 -3 14 1 14 13 0 9 3 14 6 11 4 -3 16 -1 27 4 14 8 22
8 27 -2 6 -9 12 -9 24 4 9 8 16 21 16 27 0 6 21 20 47 31 26 11 51 26 55 32 5
8 8 6 8 -7 0 -15 3 -16 15 -6 8 7 30 16 48 20 17 4 31 12 29 18 -1 7 2 12 8
12 5 0 10 -8 11 -17 0 -11 3 -13 6 -5 2 6 8 10 13 7 4 -3 13 2 20 10 11 13 16
12 40 -5 l28 -20 17 24 c10 13 24 22 32 19 24 -9 123 34 123 54 0 7 5 13 10
13 6 0 10 -6 10 -12 0 -8 3 -9 8 -3 8 12 88 12 115 0 10 -4 23 -18 28 -31 11
-31 29 -31 29 1 0 18 -5 25 -20 25 -21 0 -27 15 -10 25 5 3 32 6 59 7 40 2 52
7 61 23 12 23 40 29 52 11 5 -7 14 -7 30 1 39 19 57 22 63 12 18 -28 105 24
105 62 0 12 5 16 14 13 9 -3 13 1 13 13 -2 14 5 18 31 17 25 -1 32 3 32 18 0
17 6 18 53 13 28 -3 69 -6 89 -6 20 -1 39 -7 41 -13 3 -7 22 -13 42 -14 29 -1
36 2 31 13 -6 17 2 19 23 6 8 -5 24 -6 36 -1 14 5 27 4 33 -2 6 -6 16 -5 30 3
16 10 29 10 56 2 28 -9 38 -8 47 4 7 7 18 12 25 9 7 -3 16 -1 19 4 4 6 26 10
51 10 24 0 44 3 44 8 0 4 21 8 46 8 25 1 50 6 55 11 5 5 38 6 77 2 44 -5 76
-3 92 5 14 6 45 11 70 10 25 -1 61 2 80 7 35 8 112 17 180 21 46 2 129 -12
136 -23 3 -5 23 -9 45 -9 21 0 39 -4 39 -10 0 -5 6 -10 14 -10 8 0 16 -6 19
-14 3 -8 35 -29 71 -46 37 -19 68 -41 72 -52 3 -11 12 -17 19 -15 7 3 32 -14
56 -39 24 -24 49 -44 55 -44 6 0 19 -9 30 -21 10 -12 70 -55 132 -97 126 -84
173 -131 217 -218 17 -33 32 -61 35 -64 3 -3 16 -25 30 -50 13 -25 37 -67 52
-95 15 -27 31 -57 35 -65 3 -8 18 -33 33 -55 15 -22 30 -53 34 -70 4 -16 13
-37 20 -45 17 -20 31 -75 41 -158 2 -19 10 -41 18 -50 13 -15 22 -57 32 -149
1 -18 12 -52 23 -75 11 -24 25 -59 32 -78 8 -19 17 -40 22 -47 5 -7 4 -13 -4
-16 -10 -5 -9 -8 4 -16 9 -6 22 -28 28 -49 7 -20 19 -42 26 -48 9 -7 16 -39
20 -85 3 -41 12 -94 19 -119 9 -27 16 -104 18 -190 3 -99 8 -145 16 -148 9 -3
9 -7 1 -18 -7 -7 -14 -41 -17 -74 -5 -51 -3 -63 12 -74 16 -11 17 -17 7 -42
-7 -16 -13 -45 -13 -64 0 -19 -2 -84 -4 -145 -2 -80 1 -117 11 -137 8 -15 14
-35 14 -46 0 -23 51 -54 57 -35 3 9 10 10 23 3 15 -8 21 -6 31 11 16 30 7 142
-12 162 -19 18 -15 101 7 155 24 58 -1 176 -45 216 -22 20 -28 65 -10 83 7 7
4 20 -10 44 -25 40 -26 57 -6 79 19 21 27 88 12 111 -9 14 -8 26 1 52 7 18 12
42 12 53 0 11 5 25 10 30 7 7 7 27 -1 63 -8 39 -8 56 0 64 6 6 11 25 11 42 0
17 4 35 9 40 13 15 21 84 10 91 -5 3 -7 15 -4 25 4 11 2 26 -5 34 -8 10 -6 16
9 27 21 15 21 15 2 84 -10 38 -19 74 -21 79 -5 19 0 34 16 50 14 13 14 19 2
38 -7 12 -15 49 -17 82 -2 33 -6 65 -10 70 -4 6 -8 26 -10 45 -1 19 -7 39 -12
44 -5 6 -9 20 -9 32 0 12 -5 24 -11 26 -12 4 -39 72 -39 99 0 9 -8 20 -17 23
-12 5 -13 10 -5 18 15 15 -30 103 -80 159 -10 10 -18 26 -18 34 0 8 -4 15 -9
15 -5 0 -18 16 -30 36 -12 19 -26 32 -31 29 -16 -10 -35 6 -19 16 12 8 12 11
-1 18 -12 8 -12 13 0 35 14 27 5 51 -10 26 -5 -8 -12 -11 -17 -7 -4 5 -3 11 3
15 18 11 54 89 54 117 0 26 15 34 23 13 3 -7 6 -4 7 7 0 11 9 38 20 60 13 29
15 42 7 47 -7 4 -15 -1 -19 -12 -11 -30 -18 -24 -12 9 3 16 1 32 -5 35 -5 4
-8 13 -5 21 8 21 24 8 17 -13 -4 -13 -3 -14 6 -6 11 10 22 194 11 194 -3 0 -6
8 -7 18 -1 9 -5 41 -11 71 -5 30 -8 73 -6 95 2 23 1 35 -2 27 -5 -9 -11 -4
-20 18 -9 21 -18 30 -25 25 -7 -4 -9 -3 -6 2 10 16 -24 134 -39 134 -11 0 -27
30 -29 55 0 5 -8 11 -17 13 -13 2 -18 -3 -18 -17 0 -12 -6 -21 -15 -21 -8 0
-15 4 -15 9 0 5 7 14 15 21 18 15 20 40 3 40 -9 0 -9 3 -2 8 7 5 6 15 -3 32
-7 14 -13 19 -13 12 0 -18 -25 -9 -26 9 0 8 3 19 7 25 5 5 6 20 2 32 -6 24
-32 29 -65 11 -16 -9 -19 -8 -15 3 2 7 10 12 16 10 6 -1 11 4 11 11 0 16 -36
47 -45 39 -4 -4 -3 6 1 22 4 18 3 27 -3 23 -9 -6 -66 45 -64 57 3 19 0 26 -9
21 -6 -3 -10 4 -10 17 -1 29 -69 160 -70 134 0 -18 -1 -18 -19 -2 -11 10 -25
32 -31 49 -28 72 -77 160 -107 190 -67 65 -128 117 -152 127 -17 7 -31 19 -31
26 0 8 -6 14 -14 14 -7 0 -25 11 -40 25 -25 23 -87 36 -86 18 1 -5 24 -19 53
-33 29 -14 52 -32 52 -40 0 -8 9 -15 19 -15 10 0 22 -9 26 -20 4 -12 15 -27
24 -34 9 -7 16 -22 16 -32 0 -10 9 -23 20 -29 44 -23 77 -110 41 -107 -20 1
-37 17 -37 32 1 11 -35 29 -77 39 -20 5 -27 3 -22 -4 5 -8 -1 -11 -16 -8 -16
2 -24 9 -23 21 1 9 -2 17 -7 17 -5 0 -18 8 -29 18 -11 9 -30 20 -43 23 -13 3
-21 12 -21 23 2 13 -1 14 -12 5 -16 -13 -23 -9 -83 52 -43 42 -104 89 -117 89
-5 0 -1 -5 8 -11 10 -6 15 -16 11 -26 -5 -13 -2 -15 16 -10 17 4 24 0 32 -20
11 -28 -1 -43 -33 -43 -19 0 -58 37 -58 56 0 7 -9 12 -20 11 -18 -1 -19 -7
-14 -89 4 -63 3 -88 -6 -88 -7 0 -9 -8 -5 -21 5 -15 3 -20 -6 -17 -15 5 -30
31 -49 84 -6 17 -23 44 -38 61 -61 70 -107 127 -114 142 -4 9 -7 13 -7 8 -2
-17 -80 46 -85 69 -4 14 -22 34 -41 46 -19 11 -35 24 -35 29 0 5 -9 9 -20 9
-11 0 -26 12 -34 28 -8 15 -30 44 -50 66 -20 21 -36 42 -36 47 0 5 -7 9 -15 9
-8 0 -15 -7 -15 -15 0 -23 -16 -18 -39 13 l-20 27 6 -25z m-1050 -105 c-3 -45
-17 -45 -17 0 0 19 4 35 10 35 5 0 9 -16 7 -35z m429 8 c-10 -10 -19 5 -10 18
6 11 8 11 12 0 2 -7 1 -15 -2 -18z m724 6 c0 -5 -4 -9 -10 -9 -5 0 -10 7 -10
16 0 8 5 12 10 9 6 -3 10 -10 10 -16z m-1184 -10 c3 -6 2 -15 -4 -21 -6 -6
-11 -2 -15 11 -5 22 7 29 19 10z m432 -33 c2 -19 0 -26 -7 -21 -6 3 -9 10 -6
15 3 5 1 11 -5 15 -14 9 -12 27 3 23 6 -3 13 -17 15 -32z m159 17 c15 -10 32
-18 39 -18 11 0 75 -51 138 -110 18 -17 19 -20 4 -23 -9 -2 -26 2 -37 7 -11 6
-30 11 -42 11 -18 0 -20 -3 -11 -12 7 -7 12 -19 11 -27 0 -12 -2 -12 -6 -3 -3
7 -16 17 -29 22 -13 5 -24 17 -24 25 0 10 5 13 12 9 6 -4 8 -3 5 3 -4 6 -16
13 -28 16 -16 4 -19 2 -14 -11 12 -31 10 -37 -12 -36 -18 0 -23 -5 -23 -23 0
-15 -4 -22 -11 -17 -6 3 -9 19 -5 34 5 29 -6 40 -42 40 -20 1 -83 50 -64 50
10 0 12 8 7 30 -7 34 0 37 33 14 23 -16 43 -12 38 9 -1 7 -1 9 1 5 8 -14 23
-9 23 7 0 19 5 19 37 -2z m-988 -50 c6 -10 11 -12 11 -5 0 6 9 12 19 12 31 0
12 -52 -22 -61 -19 -5 -27 -4 -27 6 0 8 8 16 18 18 13 4 12 5 -4 6 -22 1 -38
23 -27 35 11 10 22 7 32 -11z m88 -19 c4 -15 -14 -37 -25 -30 -13 8 -3 48 11
43 6 -2 12 -7 14 -13z m109 -71 c-3 -6 2 -17 10 -23 19 -16 18 -35 -3 -60 -25
-28 -40 -25 -47 10 -19 98 -20 90 13 87 19 -1 29 -7 27 -14z m54 7 c0 -5 -2
-10 -4 -10 -3 0 -8 5 -11 10 -3 6 -1 10 4 10 6 0 11 -4 11 -10z m690 -10 c0
-5 -2 -10 -4 -10 -3 0 -8 5 -11 10 -3 6 -1 10 4 10 6 0 11 -4 11 -10z m-960
-15 c0 -8 -4 -15 -10 -15 -5 0 -10 7 -10 15 0 8 5 15 10 15 6 0 10 -7 10 -15z
m415 -6 c-4 -5 1 -9 10 -9 11 0 15 -7 12 -27 -3 -22 -10 -29 -30 -31 -19 -2
-27 1 -27 12 0 9 5 16 10 16 6 0 10 14 10 31 0 18 4 28 10 24 6 -4 8 -11 5
-16z m-265 -23 c0 -3 -4 -8 -10 -11 -5 -3 -10 -1 -10 4 0 6 5 11 10 11 6 0 10
-2 10 -4z m130 -16 c0 -5 -2 -10 -4 -10 -3 0 -8 5 -11 10 -3 6 -1 10 4 10 6 0
11 -4 11 -10z m-590 -15 c0 -8 -6 -15 -12 -16 -10 0 -10 -2 0 -6 21 -8 14 -32
-8 -26 -22 6 -28 48 -7 56 21 9 27 7 27 -8z m117 -1 c7 -18 -9 -37 -37 -41
-13 -2 -20 3 -20 13 0 8 5 12 11 9 6 -4 13 2 16 14 6 25 21 27 30 5z m2658
-14 c3 -5 2 -10 -4 -10 -5 0 -13 5 -16 10 -3 6 -2 10 4 10 5 0 13 -4 16 -10z
m-2511 -26 c11 -28 6 -38 -9 -18 -8 10 -15 22 -15 27 0 13 18 7 24 -9z m-174
-66 c0 -18 5 -28 15 -28 8 0 15 -7 15 -15 0 -8 -6 -15 -12 -15 -9 0 -8 -3 2
-10 8 -5 12 -12 8 -15 -11 -12 -45 18 -57 50 -14 40 -14 58 1 73 15 15 28 -2
28 -40z m2180 17 c0 -8 -4 -15 -10 -15 -5 0 -10 7 -10 15 0 8 5 15 10 15 6 0
10 -7 10 -15z m-108 -43 c9 -17 15 -38 12 -46 -8 -20 -49 -16 -63 6 -11 17
-10 18 8 8 19 -10 20 -9 11 15 -23 61 0 73 32 17z m-1952 8 c0 -5 -5 -10 -11
-10 -5 0 -7 5 -4 10 3 6 8 10 11 10 2 0 4 -4 4 -10z m-190 -26 c0 -8 -5 -12
-10 -9 -6 4 -8 11 -5 16 9 14 15 11 15 -7z m24 -40 c9 -3 16 -13 16 -21 0 -8
5 -11 10 -8 6 3 13 -1 16 -10 12 -29 -2 -25 -35 10 -33 36 -33 39 -7 29z
m3031 -153 c6 -20 4 -23 -9 -18 -10 4 -16 1 -16 -8 0 -8 -4 -15 -10 -15 -5 0
-10 6 -10 13 0 6 -3 23 -7 36 -5 20 -3 23 10 18 12 -4 14 -2 10 11 -5 15 -4
15 10 2 8 -8 18 -26 22 -39z m-167 20 c3 -8 -1 -12 -9 -9 -7 2 -15 10 -17 17
-3 8 1 12 9 9 7 -2 15 -10 17 -17z m-2753 -1 c3 -5 1 -10 -4 -10 -6 0 -11 5
-11 10 0 6 2 10 4 10 3 0 8 -4 11 -10z m15 -45 c0 -9 -6 -12 -15 -9 -8 4 -12
10 -9 15 8 14 24 10 24 -6z m-740 -173 c0 -4 -7 -18 -16 -31 -13 -18 -18 -20
-25 -10 -5 8 -2 20 8 31 17 19 33 24 33 10z m3878 -150 c15 -10 5 -45 -12 -39
-11 4 -18 47 -7 47 3 0 12 -4 19 -8z m-3898 -26 c0 -3 -4 -8 -10 -11 -5 -3
-10 -1 -10 4 0 6 5 11 10 11 6 0 10 -2 10 -4z m-605 -116 c-3 -5 -1 -11 3 -14
11 -7 -3 -103 -19 -133 -7 -13 -18 -23 -25 -23 -19 0 -17 116 2 134 8 8 14 21
14 29 0 7 3 17 6 20 9 9 26 -2 19 -13z m52 -42 c-3 -7 -5 -2 -5 12 0 14 2 19
5 13 2 -7 2 -19 0 -25z m4563 -10 c0 -19 -2 -20 -10 -8 -13 19 -13 30 0 30 6
0 10 -10 10 -22z m-4575 -47 c3 -5 1 -12 -5 -16 -5 -3 -10 1 -10 9 0 18 6 21
15 7z m4662 -83 c-3 -8 -6 -5 -6 6 -1 11 2 17 5 13 3 -3 4 -12 1 -19z m-62
-18 c-4 -12 -9 -19 -12 -17 -3 3 -2 15 2 27 4 12 9 19 12 17 3 -3 2 -15 -2
-27z m-4640 -80 c-5 -8 -11 -8 -17 -2 -6 6 -7 16 -3 22 5 8 11 8 17 2 6 -6 7
-16 3 -22z m-189 -45 c-8 -30 -33 -29 -28 1 6 39 12 48 24 36 6 -6 8 -22 4
-37z m33 -52 c0 -16 -4 -37 -9 -48 -7 -19 -9 -18 -19 8 -14 35 -14 35 2 52 19
22 27 18 26 -12z m-76 -9 c-4 -12 -8 -13 -14 -3 -9 15 -2 32 11 24 5 -3 6 -13
3 -21z m67 -88 c0 -8 -4 -17 -8 -20 -13 -8 -35 11 -28 23 10 16 36 14 36 -3z
m0 -136 c0 -5 -2 -10 -4 -10 -3 0 -8 5 -11 10 -3 6 -1 10 4 10 6 0 11 -4 11
-10z m-265 -800 c3 -5 1 -10 -4 -10 -6 0 -11 5 -11 10 0 6 2 10 4 10 3 0 8 -4
11 -10z m5435 -215 c0 -8 -4 -15 -10 -15 -5 0 -10 7 -10 15 0 8 5 15 10 15 6
0 10 -7 10 -15z m-1980 -471 c0 -2 -9 -4 -21 -4 -11 0 -18 4 -14 10 5 8 35 3
35 -6z m-620 -6 c0 -11 -12 -10 -30 2 -12 7 -10 9 8 7 12 0 22 -5 22 -9z
m-220 -12 c0 -3 -4 -8 -10 -11 -5 -3 -10 -1 -10 4 0 6 5 11 10 11 6 0 10 -2
10 -4z m30 -7 c0 -5 5 -7 10 -4 6 3 10 -3 10 -13 0 -18 -3 -19 -24 -9 -13 6
-21 17 -19 24 6 16 23 17 23 2z m153 -4 c-3 -9 -8 -14 -10 -11 -3 3 -2 9 2 15
9 16 15 13 8 -4z m102 5 c3 -5 1 -10 -4 -10 -6 0 -11 5 -11 10 0 6 2 10 4 10
3 0 8 -4 11 -10z m-429 -48 c-9 -9 -37 8 -31 18 5 8 11 7 21 -1 8 -6 12 -14
10 -17z m781 -98 c-3 -3 -12 -4 -19 -1 -8 3 -5 6 6 6 11 1 17 -2 13 -5z m83
-49 c0 -22 -18 -27 -29 -7 -8 14 -6 18 10 19 10 1 19 -4 19 -12z m1480 -19 c0
-3 -4 -8 -10 -11 -5 -3 -10 -1 -10 4 0 6 5 11 10 11 6 0 10 -2 10 -4z m-1540
-20 c0 -3 -4 -8 -10 -11 -5 -3 -10 -1 -10 4 0 6 5 11 10 11 6 0 10 -2 10 -4z
m-2045 -26 c-3 -5 -1 -10 5 -10 6 0 9 -4 5 -10 -9 -14 -34 0 -28 16 3 8 9 14
15 14 5 0 6 -4 3 -10z m3345 -145 c14 -4 39 -9 55 -12 17 -3 39 -13 49 -22 11
-9 16 -10 12 -3 -4 6 8 4 26 -7 18 -10 42 -17 53 -15 22 3 45 -12 45 -32 0 -7
18 -39 40 -70 22 -32 40 -62 40 -67 0 -5 12 -22 28 -36 15 -15 27 -35 27 -46
0 -11 3 -28 8 -37 19 -42 -33 5 -84 76 -18 25 -36 46 -41 46 -5 0 -35 19 -66
43 -31 24 -93 58 -137 77 -44 18 -84 37 -90 41 -5 4 -34 10 -63 14 -36 5 -55
13 -63 26 -7 14 -6 20 3 23 7 3 20 7 28 10 18 6 96 1 130 -9z m-3668 -159 c3
-16 0 -27 -10 -31 -20 -7 -21 -5 -15 28 7 34 19 35 25 3z m3552 -22 c9 -24 -3
-35 -32 -28 -38 9 -50 23 -32 34 23 15 57 12 64 -6z m-3591 -38 c7 4 2 -4 -10
-17 -29 -29 -36 -21 -21 22 11 30 13 31 16 11 2 -13 8 -20 15 -16z m3737 4
c25 -8 48 -19 52 -26 4 -6 21 -17 38 -24 16 -7 30 -16 30 -20 0 -5 12 -22 26
-39 14 -17 23 -35 19 -40 -8 -14 -35 -2 -35 16 0 11 -7 13 -26 9 -20 -5 -27
-3 -31 13 -5 22 -59 51 -92 51 -12 0 -21 6 -21 15 0 9 -9 15 -24 15 -27 0 -38
18 -22 35 12 14 27 13 86 -5z m-3792 -90 c-1 -52 -12 -65 -23 -30 -8 24 3 80
15 80 5 0 8 -22 8 -50z m62 25 c0 -16 -27 -32 -36 -22 -7 6 17 36 29 37 4 0 7
-7 7 -15z m-79 -108 c-13 -13 -26 -3 -16 12 3 6 11 8 17 5 6 -4 6 -10 -1 -17z
m4002 -11 c4 -10 1 -13 -9 -9 -15 6 -19 23 -5 23 5 0 11 -7 14 -14z m80 -70
c4 -10 1 -13 -8 -9 -8 3 -12 9 -9 14 7 12 11 11 17 -5z m577 -269 c0 -13 9
-33 20 -45 32 -34 24 -82 -8 -50 -9 9 -12 5 -12 -20 0 -50 -20 -38 -21 13 -2
49 -2 52 -13 78 -11 22 -1 47 19 47 9 0 15 -9 15 -23z m37 -159 c-3 -8 -6 -5
-6 6 -1 11 2 17 5 13 3 -3 4 -12 1 -19z m33 -38 c0 -13 -5 -18 -15 -14 -12 5
-13 10 -4 20 15 19 19 18 19 -6z m-2750 -90 c-10 -6 -11 -10 -2 -10 6 0 12 -7
12 -15 0 -17 -16 -20 -25 -5 -9 15 2 40 17 40 9 0 8 -3 -2 -10z m1396 -528
c24 -7 44 -16 44 -22 0 -5 5 -10 11 -10 5 0 7 6 4 13 -3 6 0 4 7 -7 7 -10 23
-29 36 -42 12 -13 22 -27 22 -33 0 -5 8 -12 18 -15 19 -6 41 -38 46 -66 5 -27
31 -74 53 -98 12 -13 25 -37 28 -53 4 -16 10 -29 15 -29 4 0 17 -19 28 -42 11
-24 38 -60 61 -80 23 -20 41 -40 41 -45 0 -4 12 -19 25 -32 34 -31 32 -44 -5
-36 -23 5 -30 3 -30 -9 0 -22 -16 -20 -53 6 -46 33 -96 57 -91 44 9 -24 -45
-16 -65 10 -16 21 -27 25 -60 23 -43 -3 -121 28 -121 49 0 6 -9 12 -21 12 -17
0 -20 4 -15 24 5 20 0 27 -35 45 -22 12 -52 32 -67 46 -15 14 -31 25 -37 25
-5 0 -24 14 -42 30 -18 17 -36 30 -42 30 -21 0 -61 24 -61 36 0 7 -14 24 -32
39 -40 34 -22 51 30 29 19 -8 41 -14 49 -14 19 0 133 114 133 133 0 8 12 18
26 21 17 5 24 12 20 21 -3 8 -1 15 4 15 6 0 10 8 11 18 0 14 2 14 10 -4 6 -12
28 -25 55 -32z m-3406 -213 c0 -29 -4 -39 -16 -39 -13 0 -14 3 -4 15 7 9 9 26
5 46 -5 22 -4 29 4 25 6 -4 11 -25 11 -47z m1847 -46 c-11 -10 -26 8 -20 23 5
15 7 14 15 -1 6 -9 7 -19 5 -22z m-1767 -277 c0 -51 16 -86 40 -86 23 0 23 0
9 -37 -6 -15 -12 -41 -14 -58 -3 -37 16 -115 28 -115 5 0 4 -7 -3 -15 -14 -17
-4 -39 16 -31 7 3 16 1 19 -4 4 -6 1 -10 -4 -10 -16 0 -11 -169 6 -203 8 -16
12 -34 10 -41 -3 -6 8 -25 24 -40 28 -29 41 -86 19 -86 -18 0 -11 -35 10 -48
26 -16 27 -52 1 -52 -22 0 -74 61 -76 89 0 10 -16 33 -33 52 -18 19 -42 48
-54 65 -11 17 -33 36 -49 43 -15 6 -35 24 -45 38 -15 24 -16 35 -5 102 6 41
26 107 44 146 30 66 32 75 30 175 -2 58 0 115 2 128 8 34 25 26 25 -12z m2875
24 c3 -5 -1 -10 -9 -10 -9 0 -16 5 -16 10 0 6 4 10 9 10 6 0 13 -4 16 -10z
m285 -23 c0 -6 -3 -7 -7 -4 -3 4 -12 2 -20 -4 -10 -9 -13 -8 -13 3 0 8 3 17 6
21 9 8 34 -3 34 -16z m-390 -8 c0 -11 -29 -19 -73 -19 -25 0 -37 4 -31 9 14
14 104 23 104 10z m-275 -9 c3 -5 -1 -10 -10 -10 -9 0 -13 5 -10 10 3 6 8 10
10 10 2 0 7 -4 10 -10z m108 3 c-7 -2 -21 -2 -30 0 -10 3 -4 5 12 5 17 0 24
-2 18 -5z m651 -45 c-3 -4 -9 -8 -15 -8 -5 0 -9 4 -9 8 0 5 7 9 15 9 8 0 12
-4 9 -9z m41 -18 c3 -5 1 -10 -4 -10 -6 0 -11 5 -11 10 0 6 2 10 4 10 3 0 8
-4 11 -10z m45 -20 c11 -11 17 -20 14 -20 -4 0 -1 -7 6 -15 10 -12 10 -15 -1
-15 -24 1 -49 26 -49 49 0 26 5 26 30 1z m-1870 -39 c0 -14 -18 -23 -30 -16
-6 4 -8 11 -5 16 8 12 35 12 35 0z m2015 -76 c17 -13 24 -24 18 -25 -7 0 -13
-7 -13 -16 0 -12 -9 -6 -30 17 -16 19 -30 37 -30 42 0 14 26 6 55 -18z m-2095
-25 c0 -5 -5 -10 -11 -10 -5 0 -7 5 -4 10 3 6 8 10 11 10 2 0 4 -4 4 -10z
m2574 -178 c8 -26 16 -60 18 -77 2 -17 15 -41 30 -55 29 -28 33 -74 8 -91 -10
-6 -11 -12 -5 -16 37 -27 62 -103 34 -103 -5 0 -9 -5 -9 -12 0 -6 8 -4 20 7
18 16 20 16 35 1 15 -15 15 -16 -4 -16 -12 0 -22 1 -24 3 -2 1 -15 -6 -30 -16
-15 -9 -27 -13 -27 -8 0 5 6 12 13 14 9 4 9 6 -1 6 -7 1 -16 -9 -21 -21 -7
-19 -8 -19 -14 -4 -4 10 -11 15 -16 11 -5 -3 -13 0 -17 6 -4 8 -9 7 -15 -2 -8
-11 -11 -11 -20 4 -5 9 -15 17 -20 17 -6 0 -7 -5 -3 -12 4 -6 -2 -18 -12 -26
-18 -14 -18 -14 2 -8 20 6 22 3 22 -35 1 -46 7 -58 23 -42 12 12 39 7 39 -7 0
-5 -10 -10 -21 -12 -12 -2 -29 -14 -37 -27 -15 -22 -15 -23 4 -19 10 2 25 -3
31 -12 11 -13 14 -13 22 -1 5 8 21 15 35 17 20 2 26 -2 26 -17 0 -10 -7 -19
-15 -19 -8 0 -15 5 -15 10 0 7 -6 7 -20 0 -12 -6 -20 -21 -20 -36 0 -13 -7
-27 -16 -31 -14 -5 -13 -8 7 -20 15 -9 17 -12 6 -9 -59 19 -66 18 -64 -2 1
-17 6 -19 34 -15 23 4 33 2 33 -7 0 -7 -3 -10 -6 -7 -9 8 -44 -11 -44 -23 0
-6 5 -9 12 -7 7 1 13 -4 14 -10 1 -7 2 -18 3 -24 0 -5 9 -9 19 -8 32 3 43 -1
36 -13 -4 -7 -3 -8 5 -4 6 4 8 13 4 19 -4 7 1 5 11 -3 13 -10 14 -16 6 -18 -9
-3 -9 -6 1 -13 7 -4 10 -11 6 -15 -3 -4 -13 -1 -22 6 -12 10 -16 9 -21 -4 -9
-23 -3 -26 40 -28 36 -1 38 -3 34 -30 -3 -16 -1 -31 4 -34 4 -3 3 -14 -2 -25
-6 -10 -7 -19 -2 -19 5 0 14 10 20 23 10 21 11 21 10 -8 -1 -16 3 -39 9 -50
13 -23 -13 -95 -34 -95 -20 0 -15 -23 7 -43 24 -20 26 -43 4 -51 -13 -5 -15
-15 -11 -41 5 -31 3 -37 -23 -50 -25 -13 -28 -19 -23 -50 l6 -34 -33 9 c-26 7
-31 6 -26 -5 3 -8 -3 -16 -14 -20 -11 -3 -17 -12 -14 -20 4 -10 -4 -15 -28
-17 -25 -2 -32 -7 -30 -21 2 -9 -4 -20 -13 -23 -8 -3 -15 -17 -15 -30 0 -21
-3 -23 -19 -14 -23 12 -51 3 -51 -16 0 -10 -13 -14 -44 -14 -25 0 -48 -5 -51
-11 -4 -6 -14 -8 -24 -5 -12 5 -11 2 3 -9 15 -11 17 -18 9 -26 -16 -16 -33 -2
-33 27 0 17 -5 24 -20 24 -13 0 -20 7 -20 19 0 11 -4 23 -10 26 -5 3 -10 0
-10 -7 0 -7 -12 6 -26 30 -14 23 -33 42 -42 42 -26 0 -64 30 -58 46 3 8 0 11
-10 7 -8 -3 -14 1 -14 9 0 9 -17 20 -40 27 -22 6 -40 16 -40 22 0 6 -4 8 -9 4
-5 -3 -16 4 -24 15 -7 11 -16 17 -19 14 -3 -3 -8 6 -12 19 -6 27 -49 41 -118
40 -41 -1 -49 12 -20 33 16 12 16 14 -3 28 -18 14 -21 13 -32 -1 -7 -9 -13
-12 -13 -5 0 8 -7 9 -24 3 -17 -7 -27 -5 -38 6 -9 8 -28 16 -44 18 -16 2 -40
5 -52 9 -18 4 -22 2 -18 -9 8 -21 -10 -27 -36 -13 -32 18 -39 30 -25 47 9 10
9 15 1 18 -6 2 -20 10 -30 18 -15 11 -16 16 -7 26 7 7 23 14 35 16 13 2 25 8
26 13 2 6 11 10 21 10 22 0 71 23 71 33 0 4 12 7 26 7 14 0 23 4 20 8 -2 4 4
13 15 20 13 8 19 9 19 1 0 -6 6 -4 14 4 12 11 37 13 122 10 83 -4 108 -2 115
8 7 11 9 11 9 1 0 -7 4 -11 9 -7 5 3 12 1 16 -5 11 -18 27 -11 20 10 -4 11 -2
21 4 21 26 3 30 4 37 12 4 4 16 7 27 7 13 0 17 5 13 15 -7 20 23 20 38 0 8
-10 15 -12 26 -5 13 9 13 12 -2 21 -10 5 -18 19 -18 29 0 10 -5 22 -10 25 -6
4 -8 11 -5 16 4 5 -5 9 -19 9 -34 0 -41 16 -17 42 19 20 26 17 23 -13 0 -3 21
2 49 10 59 19 62 36 12 74 -23 17 -30 27 -20 27 18 0 21 8 9 26 -9 14 -62 24
-62 13 0 -17 -19 -9 -25 11 -3 11 -15 20 -25 20 -29 0 -70 43 -70 74 0 16 5
26 15 26 8 0 15 9 15 20 0 11 -4 20 -10 20 -5 0 -10 8 -10 18 0 14 2 15 10 2
13 -21 24 -5 11 18 -8 16 -5 24 17 47 25 25 124 64 162 65 19 0 93 39 102 54
6 8 8 8 8 0 0 -6 18 -14 40 -18 22 -3 40 -12 40 -19 0 -8 16 -13 46 -15 41 -1
45 0 39 18 -5 16 -2 20 14 20 12 0 21 -5 21 -11 0 -5 5 -7 11 -3 6 3 9 15 6
25 -3 11 -1 17 3 14 5 -3 11 9 15 26 4 17 13 33 21 36 11 4 11 9 2 26 -7 12
-13 24 -13 27 0 3 -6 15 -13 28 -7 12 -10 22 -7 22 3 0 -4 9 -15 20 -22 22
-19 40 6 40 8 0 14 -8 14 -18 0 -19 18 -42 32 -42 5 0 6 11 2 25 -5 19 -2 25
11 25 10 0 13 5 9 12 -4 6 -3 8 4 4 6 -3 17 -28 26 -54z m-2814 -4 c19 6 11
-2 -16 -16 -18 -10 -23 -8 -27 8 -4 16 -2 18 11 11 10 -4 24 -6 32 -3z m-120
-14 c0 -9 -5 -12 -12 -8 -8 5 -9 2 -5 -9 3 -10 2 -17 -2 -17 -17 0 -18 25 -2
37 21 16 21 16 21 -3z m-365 -14 c3 -5 2 -10 -4 -10 -5 0 -13 5 -16 10 -3 6
-2 10 4 10 5 0 13 -4 16 -10z m310 -21 c-10 -15 -25 -10 -19 6 4 8 10 12 15 9
5 -3 7 -10 4 -15z m59 -24 c3 -9 0 -15 -9 -15 -9 0 -12 6 -9 15 4 8 7 15 9 15
2 0 5 -7 9 -15z m-134 -5 c0 -5 -5 -10 -11 -10 -5 0 -7 5 -4 10 3 6 8 10 11
10 2 0 4 -4 4 -10z m80 1 c0 -6 -4 -12 -8 -15 -5 -3 -9 1 -9 9 0 8 4 15 9 15
4 0 8 -4 8 -9z m204 1 c3 -5 -1 -9 -9 -9 -8 0 -12 4 -9 9 3 4 7 8 9 8 2 0 6
-4 9 -8z m-19 -32 c3 -6 -1 -7 -9 -4 -18 7 -21 14 -7 14 6 0 13 -4 16 -10z
m-497 -30 c10 -17 10 -21 -3 -26 -8 -4 -15 -15 -15 -25 0 -10 -4 -19 -10 -19
-15 0 -12 26 5 40 11 9 12 17 4 31 -13 25 3 24 19 -1z m82 16 c0 -3 -4 -8 -10
-11 -5 -3 -10 -1 -10 4 0 6 5 11 10 11 6 0 10 -2 10 -4z m71 -27 c-12 -13 -21
-19 -21 -14 0 11 32 46 38 41 2 -3 -5 -15 -17 -27z m379 -24 c0 -8 -12 -20
-26 -25 -32 -12 -34 -12 -34 0 0 6 7 10 15 10 10 0 15 10 15 31 0 27 2 29 15
15 8 -8 15 -22 15 -31z m50 18 c0 -9 -6 -13 -15 -9 -20 7 -19 -4 3 -21 15 -13
15 -13 -5 -3 -27 12 -27 14 -11 39 13 22 28 18 28 -6z m1915 -2 c6 -4 31 -7
58 -6 43 1 47 -1 47 -22 0 -13 5 -23 12 -23 15 0 4 -11 -14 -14 -7 -1 -18 -5
-25 -9 -7 -4 -28 -7 -46 -5 -19 1 -46 -6 -61 -15 -16 -11 -26 -13 -26 -6 0 6
-7 9 -15 5 -8 -3 -15 -1 -15 4 0 16 -27 11 -34 -6 -5 -14 -9 -14 -23 -3 -9 8
-19 13 -22 11 -3 -2 -8 7 -11 19 -5 22 -6 22 -23 -4 -21 -33 -42 -36 -33 -5 4
17 -2 29 -22 46 -23 19 -23 21 -4 12 12 -6 27 -8 32 -5 6 3 10 -1 10 -10 0 -9
5 -13 11 -10 5 4 8 12 6 18 -4 13 10 30 33 40 18 8 151 -2 165 -12z m-2380
-21 c-3 -5 -10 -10 -16 -10 -5 0 -9 5 -9 10 0 6 7 10 16 10 8 0 12 -4 9 -10z
m-98 -26 c-9 -9 -28 6 -21 18 4 6 10 6 17 -1 6 -6 8 -13 4 -17z m37 18 c3 -5
-1 -9 -9 -9 -8 0 -12 4 -9 9 3 4 7 8 9 8 2 0 6 -4 9 -8z m346 -2 c0 -5 -2 -10
-4 -10 -3 0 -8 5 -11 10 -3 6 -1 10 4 10 6 0 11 -4 11 -10z m3560 1 c0 -12
-20 -25 -27 -18 -7 7 6 27 18 27 5 0 9 -4 9 -9z m-3430 -26 c-7 -8 -18 -15
-24 -15 -6 0 -2 7 8 15 25 19 32 19 16 0z m1410 -15 c0 -13 -13 -19 -54 -24
-33 -4 -37 -2 -34 17 2 13 13 24 28 28 26 6 60 -5 60 -21z m2065 -59 c-4 -14
-15 -34 -25 -43 -17 -16 -18 -16 -24 7 -3 13 -13 31 -23 40 -15 15 -15 16 3
13 15 -2 19 3 19 25 0 15 7 32 15 37 20 13 44 -42 35 -79z m-1350 69 c3 -5 1
-10 -4 -10 -6 0 -11 5 -11 10 0 6 2 10 4 10 3 0 8 -4 11 -10z m825 0 c0 -5 -7
-7 -15 -4 -8 4 -15 8 -15 10 0 2 7 4 15 4 8 0 15 -4 15 -10z m-64 -31 c19 -22
19 -22 -3 -10 -24 12 -39 31 -25 31 5 0 17 -10 28 -21z m404 -9 c0 -16 -4 -30
-10 -30 -5 0 -18 -9 -29 -21 -27 -29 -43 -17 -30 24 6 17 12 38 15 45 2 6 15
12 29 12 21 0 25 -5 25 -30z m-1210 5 c11 -13 10 -14 -4 -9 -9 3 -16 10 -16
15 0 13 6 11 20 -6z m1230 -36 c0 -11 -4 -18 -10 -14 -5 3 -7 12 -3 20 7 21
13 19 13 -6z m100 -19 c0 -5 -4 -10 -10 -10 -5 0 -10 5 -10 10 0 6 5 10 10 10
6 0 10 -4 10 -10z m-111 -61 c-6 -4 -8 -12 -4 -19 8 -13 -14 -32 -27 -24 -4 3
-8 20 -8 39 0 43 31 66 43 33 5 -13 3 -24 -4 -29z m-3302 -11 c-3 -8 -6 -5 -6
6 -1 11 2 17 5 13 3 -3 4 -12 1 -19z m2783 -28 c13 -8 13 -10 -2 -10 -9 0 -20
5 -23 10 -8 13 5 13 25 0z m640 -20 c0 -5 -4 -10 -10 -10 -5 0 -10 5 -10 10 0
6 5 10 10 10 6 0 10 -4 10 -10z m-4450 -36 c0 -13 -4 -24 -9 -24 -11 0 -19 30
-14 48 7 20 23 3 23 -24z m4458 -22 c4 -25 -13 -30 -22 -6 -9 25 -7 36 7 32 6
-3 13 -14 15 -26z m-4403 -62 c-3 -6 -2 -10 3 -10 9 0 32 -52 32 -71 0 -26
-30 -3 -51 39 -26 52 -30 71 -14 89 7 8 13 4 23 -13 7 -14 10 -29 7 -34z
m4365 40 c0 -5 -5 -10 -11 -10 -5 0 -7 5 -4 10 3 6 8 10 11 10 2 0 4 -4 4 -10z
m-40 -30 c0 -5 -4 -10 -10 -10 -5 0 -10 5 -10 10 0 6 5 10 10 10 6 0 10 -4 10
-10z m-2609 -10 c6 0 8 -4 5 -9 -8 -12 -46 -2 -46 11 0 6 7 7 16 4 9 -3 20 -6
25 -6z m112 -37 c-7 -3 -13 -12 -13 -20 0 -9 -2 -14 -5 -11 -4 3 -3 18 1 33 5
20 9 24 18 14 8 -8 8 -13 -1 -16z m1452 7 c3 -5 2 -10 -4 -10 -5 0 -13 5 -16
10 -3 6 -2 10 4 10 5 0 13 -4 16 -10z m-3231 -139 c-9 -11 -21 13 -16 32 6 22
6 22 12 -3 4 -14 6 -27 4 -29z m3736 35 c0 -3 -4 -8 -10 -11 -5 -3 -10 -1 -10
4 0 6 5 11 10 11 6 0 10 -2 10 -4z m-16 -37 c-3 -5 0 -9 7 -9 9 0 10 -3 2 -11
-8 -8 -17 -6 -31 7 -25 21 -20 34 8 27 11 -3 17 -9 14 -14z m-29 -19 c3 -5 2
-10 -4 -10 -5 0 -13 5 -16 10 -3 6 -2 10 4 10 5 0 13 -4 16 -10z m200 -229
c-3 -5 3 -17 12 -27 19 -18 25 -42 16 -57 -3 -5 -12 3 -19 19 l-12 29 -1 -31
c-1 -37 -21 -49 -48 -28 -10 9 -13 13 -7 10 11 -5 34 34 34 57 0 7 5 18 12 25
14 14 21 16 13 3z m-1574 -90 c7 11 9 11 9 1 0 -8 8 -10 25 -6 15 4 25 2 25
-5 0 -6 5 -11 10 -11 6 0 10 7 10 15 0 8 9 15 20 15 13 0 18 -5 14 -15 -4 -8
-10 -15 -15 -15 -5 0 -9 -9 -9 -20 0 -12 -11 -32 -24 -45 -13 -13 -22 -26 -19
-29 3 -2 0 -11 -6 -18 -6 -7 -20 -24 -31 -36 -10 -13 -23 -21 -29 -18 -5 4
-13 2 -16 -4 -4 -7 -11 -8 -18 -1 -8 6 -19 5 -31 -5 -11 -8 -15 -14 -9 -14 7
0 15 5 18 10 5 8 11 8 19 1 7 -6 15 -8 19 -5 3 3 3 -3 0 -15 -6 -23 -23 -27
-40 -10 -8 8 -15 4 -26 -12 -9 -12 -14 -26 -11 -31 3 -4 -4 -8 -15 -8 -12 0
-21 4 -21 10 0 5 -7 7 -15 4 -11 -5 -15 1 -15 25 0 21 -5 31 -15 31 -9 0 -18
7 -21 15 -5 12 -10 13 -20 4 -14 -11 -20 -1 -15 25 1 5 -6 5 -16 1 -10 -4 -30
-8 -45 -9 -20 -1 -28 -6 -28 -18 0 -10 -3 -18 -7 -18 -5 0 -14 -12 -21 -28
-10 -23 -10 -29 3 -38 19 -14 19 -34 0 -34 -9 0 -15 -9 -15 -22 0 -17 3 -19 9
-9 10 16 20 -48 11 -74 -7 -20 -24 -16 -25 7 -1 9 2 15 7 12 13 -8 9 16 -6 31
-7 8 -23 11 -35 8 -13 -3 -21 -1 -21 7 0 7 7 10 15 6 8 -3 15 -1 15 4 0 15
-28 12 -37 -3 -13 -22 -54 -28 -70 -11 -9 8 -13 18 -10 21 4 3 2 14 -3 23 -8
15 -4 19 22 24 17 3 42 6 55 6 18 0 24 4 19 15 -3 8 2 19 12 24 9 6 13 11 8
11 -15 0 36 40 52 40 9 0 12 6 8 16 -5 13 -2 15 14 11 15 -4 20 0 20 13 0 13
-5 17 -20 13 -16 -4 -19 -2 -14 11 3 9 10 13 15 10 5 -3 12 7 15 23 4 21 11
28 29 28 13 0 21 -3 18 -7 -2 -5 1 -8 6 -8 6 0 11 3 11 8 0 9 49 32 69 32 8 0
11 3 8 7 -14 13 46 32 94 30 27 -2 54 0 61 4 7 5 15 4 17 -2 2 -7 7 -6 12 2z
m-2191 -62 c0 -5 -4 -9 -10 -9 -5 0 -10 7 -10 16 0 8 5 12 10 9 6 -3 10 -10
10 -16z m2426 -16 c5 -19 2 -30 -11 -40 -27 -19 -44 -16 -42 6 0 11 5 17 11
14 5 -4 7 1 2 12 -4 11 -2 22 6 27 21 13 27 9 34 -19z m399 -83 c3 -5 -1 -10
-9 -10 -9 0 -16 5 -16 10 0 6 4 10 9 10 6 0 13 -4 16 -10z m-555 -28 c0 -15
-11 -21 -27 -15 -12 5 -12 7 -1 14 17 11 28 11 28 1z m623 -22 c19 -12 37 -29
40 -39 6 -24 -21 -23 -29 2 -3 10 -19 23 -35 29 -16 5 -26 14 -23 19 7 12 8
12 47 -11z m-1026 -32 c-1 -14 6 -26 20 -33 13 -7 20 -15 16 -18 -3 -4 3 -7
15 -7 11 0 23 -4 26 -9 4 -5 -2 -7 -13 -4 -20 5 -42 -18 -23 -25 7 -2 12 -8
12 -14 0 -6 -7 -7 -16 -4 -10 4 -18 -1 -21 -14 -5 -17 -7 -18 -20 -4 -12 12
-13 17 -2 30 17 21 20 44 6 41 -7 -1 -11 6 -11 16 1 9 -2 17 -6 17 -11 0 -7
34 5 42 14 11 15 10 12 -14z m-230 -90 c-3 -8 -6 -5 -6 6 -1 11 2 17 5 13 3
-3 4 -12 1 -19z m100 -58 c2 -30 -13 -33 -25 -5 -10 21 -9 25 6 25 11 0 18 -8
19 -20z m1982 -126 c-14 -17 -39 -19 -39 -3 0 6 7 9 15 5 8 -3 14 -2 14 2 -3
16 2 23 11 17 8 -5 7 -11 -1 -21z m-131 -135 c-28 -18 -38 -8 -16 14 18 18 24
20 26 9 2 -8 -2 -18 -10 -23z m-3268 -243 c0 -11 -19 -15 -25 -6 -3 5 1 10 9
10 9 0 16 -2 16 -4z m64 -344 c2 -4 -5 -9 -17 -9 -17 -2 -19 0 -7 7 18 12 18
12 24 2z m96 -322 c0 -5 -8 -10 -17 -10 -15 0 -16 2 -3 10 19 12 20 12 20 0z
m2454 -349 c3 -5 -5 -8 -19 -8 -14 0 -22 3 -19 8 3 5 11 9 19 9 8 0 16 -4 19
-9z m117 -114 c-8 -8 -11 -5 -11 9 0 27 14 41 18 19 2 -9 -1 -22 -7 -28z
m-2551 29 c0 -3 -4 -8 -10 -11 -5 -3 -10 -1 -10 4 0 6 5 11 10 11 6 0 10 -2
10 -4z m-11 -112 c-6 -7 -19 -12 -29 -11 -15 1 -16 5 -8 23 9 19 14 21 29 11
13 -8 15 -15 8 -23z m-69 -93 c0 -6 -4 -13 -10 -16 -5 -3 -10 1 -10 9 0 9 5
16 10 16 6 0 10 -4 10 -9z m145 -31 c6 -1 -1 -6 -14 -11 -20 -8 -21 -12 -11
-25 10 -12 15 -12 21 -2 13 20 22 1 14 -29 -5 -19 -9 -23 -13 -13 -3 8 -16 23
-29 33 -13 11 -22 22 -19 25 3 3 1 11 -6 19 -9 12 -6 13 18 9 16 -2 34 -5 39
-6z m15 -110 c0 -5 -2 -10 -4 -10 -3 0 -8 5 -11 10 -3 6 -1 10 4 10 6 0 11 -4
11 -10z m-55 -219 c9 -16 -9 -20 -23 -5 -10 12 -10 14 2 14 8 0 17 -4 21 -9z
m115 -146 c10 -12 9 -16 -4 -21 -19 -7 -53 22 -33 29 20 9 24 8 37 -8z m-170
-225 c0 -5 -8 -10 -17 -10 -15 0 -16 2 -3 10 19 12 20 12 20 0z m137 -12 c-3
-8 -6 -5 -6 6 -1 11 2 17 5 13 3 -3 4 -12 1 -19z m-21 -62 c1 -8 -5 -12 -16
-9 -12 3 -16 11 -12 25 5 21 24 11 28 -16z m10 -211 c11 4 6 -1 -11 -11 -16
-9 -35 -24 -42 -33 -10 -14 -11 -12 -9 10 4 38 15 52 31 39 7 -6 21 -8 31 -5z
m-211 -25 c3 -5 -1 -10 -10 -10 -9 0 -13 5 -10 10 3 6 8 10 10 10 2 0 7 -4 10
-10z m335 -80 c0 -5 -2 -10 -4 -10 -3 0 -8 5 -11 10 -3 6 -1 10 4 10 6 0 11
-4 11 -10z m-370 -10 c0 -5 -8 -10 -17 -10 -15 0 -16 2 -3 10 19 12 20 12 20
0z m60 -25 c0 -8 8 -18 17 -24 14 -7 15 -12 5 -24 -7 -8 -22 -13 -32 -10 -16
4 -20 0 -20 -23 -1 -26 -2 -27 -14 -11 -7 9 -19 17 -26 17 -9 0 -8 5 3 18 10
10 17 24 17 30 0 17 32 52 42 46 4 -3 8 -11 8 -19z m-360 -126 c0 -6 -4 -7
-10 -4 -5 3 -10 11 -10 16 0 6 5 7 10 4 6 -3 10 -11 10 -16z m454 -85 c3 -8
11 -12 16 -9 17 10 40 -15 40 -42 0 -13 5 -23 13 -22 24 3 37 -1 37 -12 0 -5
-5 -7 -12 -3 -8 5 -9 2 -5 -9 3 -10 2 -17 -3 -17 -6 0 -10 -13 -10 -30 0 -16
-4 -30 -9 -30 -14 0 -19 23 -9 43 6 11 5 17 -2 17 -6 0 -13 -7 -16 -15 -4 -8
-10 -15 -16 -15 -5 0 -7 3 -4 8 2 4 -1 15 -8 24 -13 17 -59 19 -74 3 -4 -4 -1
-5 6 -1 6 4 12 2 12 -4 0 -6 4 -9 8 -6 4 2 8 -4 8 -15 0 -10 -6 -19 -13 -19
-7 0 -13 7 -13 15 0 22 -23 18 -44 -7 l-19 -22 -8 22 c-5 12 -13 22 -19 22 -6
0 -10 8 -8 18 2 9 -4 26 -14 36 -10 11 -18 25 -18 30 0 6 11 -2 25 -18 13 -16
22 -33 19 -38 -4 -5 2 -8 12 -7 11 2 24 0 30 -4 13 -8 29 37 19 53 -3 6 1 7 9
4 13 -5 15 0 9 26 -4 20 -2 31 3 27 6 -3 16 -2 24 4 21 12 27 11 34 -7z m-148
-9 c16 -8 23 -15 16 -15 -7 0 -10 -4 -7 -10 3 -5 1 -10 -5 -10 -6 0 -13 7 -16
15 -4 8 -10 12 -15 9 -5 -3 -9 2 -9 10 0 20 1 20 36 1z m-181 -105 c3 -6 -1
-7 -9 -4 -18 7 -21 14 -7 14 6 0 13 -4 16 -10z m150 -60 c3 -6 -1 -7 -9 -4
-18 7 -21 14 -7 14 6 0 13 -4 16 -10z m195 -6 c0 -8 -5 -12 -10 -9 -6 4 -8 11
-5 16 9 14 15 11 15 -7z m-125 -14 c-3 -5 0 -18 7 -29 10 -17 10 -23 0 -33
-11 -11 -13 -10 -10 2 2 9 -4 15 -16 15 -10 0 -23 9 -27 20 -10 27 -11 37 -1
31 4 -2 14 -1 22 4 16 10 33 3 25 -10z m75 0 c0 -5 -2 -10 -4 -10 -3 0 -8 5
-11 10 -3 6 -1 10 4 10 6 0 11 -4 11 -10z m210 -2 c0 -23 -17 -41 -25 -28 -4
6 -13 9 -21 6 -8 -3 -14 1 -14 9 0 12 17 21 48 24 6 0 12 -5 12 -11z m-230
-18 c0 -5 -2 -10 -4 -10 -3 0 -8 5 -11 10 -3 6 -1 10 4 10 6 0 11 -4 11 -10z
m63 3 c-23 -8 -14 -22 11 -17 14 2 28 0 31 -6 4 -6 -7 -10 -27 -10 -25 0 -29
-3 -18 -10 12 -8 10 -10 -10 -10 -24 -1 -24 -1 -5 -12 29 -16 29 -16 11 -33
-14 -14 -16 -14 -16 -2 0 9 -4 17 -9 19 -6 2 -7 21 -4 43 4 33 9 41 27 42 11
0 15 -1 9 -4z m46 -50 c-5 -33 3 -53 21 -53 11 0 20 -4 20 -9 0 -6 -12 -6 -30
1 -31 10 -50 28 -30 28 7 0 9 8 5 20 -4 11 -2 20 4 20 6 0 10 -3 10 -7z m76
-53 c3 -5 1 -10 -4 -10 -6 0 -11 5 -11 10 0 6 2 10 4 10 3 0 8 -4 11 -10z
m-85 -30 c0 -5 -4 -10 -10 -10 -5 0 -10 5 -10 10 0 6 5 10 10 10 6 0 10 -4 10
-10z m125 -10 c3 -5 1 -10 -4 -10 -6 0 -11 5 -11 10 0 6 2 10 4 10 3 0 8 -4
11 -10z m-100 -20 c3 -5 1 -10 -4 -10 -6 0 -11 5 -11 10 0 6 2 10 4 10 3 0 8
-4 11 -10z m138 -32 c-6 -7 -13 -20 -17 -28 -3 -9 -5 -6 -2 7 3 15 0 20 -10
16 -8 -3 -14 0 -14 6 0 6 12 11 26 11 20 0 24 -3 17 -12z m962 -128 c3 -5 1
-10 -4 -10 -6 0 -11 5 -11 10 0 6 2 10 4 10 3 0 8 -4 11 -10z m-9 -57 c-10
-10 -19 5 -10 18 6 11 8 11 12 0 2 -7 1 -15 -2 -18z m-429 -97 c0 -8 -6 -12
-14 -9 -7 3 -13 9 -13 14 0 5 6 9 13 9 8 0 14 -6 14 -14z m190 -32 c5 -16 -23
-48 -35 -40 -7 4 -12 16 -12 28 0 16 3 18 14 9 11 -9 16 -9 22 0 4 8 3 9 -4 5
-7 -4 -12 -2 -12 4 0 14 22 8 27 -6z"/>
<path d="M10925 16970 c3 -5 8 -10 11 -10 2 0 4 5 4 10 0 6 -5 10 -11 10 -5 0
-7 -4 -4 -10z"/>
<path d="M12600 11310 c0 -5 5 -10 10 -10 6 0 10 5 10 10 0 6 -4 10 -10 10 -5
0 -10 -4 -10 -10z"/>
<path d="M12887 10654 c-4 -4 -7 -16 -7 -27 0 -11 3 -17 7 -14 3 4 13 1 20 -5
12 -10 14 -7 11 17 -3 28 -18 42 -31 29z"/>
<path d="M12716 10375 c4 -8 10 -12 15 -9 14 8 10 24 -6 24 -9 0 -12 -6 -9
-15z"/>
<path d="M12832 10376 c7 -8 15 -12 17 -11 5 6 -10 25 -20 25 -5 0 -4 -6 3
-14z"/>
<path d="M12437 10329 c7 -7 15 -10 18 -7 3 3 -2 9 -12 12 -14 6 -15 5 -6 -5z"/>
<path d="M12500 10215 c0 -23 4 -34 11 -30 6 4 16 -1 23 -11 7 -9 18 -14 24
-10 22 13 12 41 -23 64 l-35 22 0 -35z"/>
<path d="M12740 10205 c0 -8 7 -15 15 -15 9 0 12 6 9 15 -4 8 -10 15 -15 15
-5 0 -9 -7 -9 -15z"/>
<path d="M12480 10170 c0 -6 7 -10 15 -10 8 0 15 2 15 4 0 2 -7 6 -15 10 -8 3
-15 1 -15 -4z"/>
<path d="M12747 10169 c7 -7 15 -10 18 -7 3 3 -2 9 -12 12 -14 6 -15 5 -6 -5z"/>
<path d="M12850 10145 c7 -8 17 -15 22 -15 5 0 3 7 -6 15 -8 8 -18 15 -22 15
-3 0 -1 -7 6 -15z"/>
<path d="M12520 10130 c0 -5 5 -10 10 -10 6 0 10 -9 10 -20 0 -13 5 -18 16
-13 10 4 12 9 5 16 -5 5 -7 16 -4 23 3 9 -2 14 -16 14 -12 0 -21 -4 -21 -10z"/>
<path d="M11989 9861 c9 -6 10 -11 2 -15 -6 -4 -15 -4 -21 -1 -5 3 -10 2 -10
-4 0 -15 18 -23 25 -10 4 5 13 8 20 5 8 -3 11 2 8 15 -3 10 -13 19 -22 19 -13
0 -13 -2 -2 -9z"/>
<path d="M11375 9661 c-3 -6 -11 -8 -17 -5 -6 4 -9 1 -6 -6 2 -8 10 -16 18
-18 7 -3 10 0 6 6 -3 6 0 12 6 15 7 2 10 7 7 11 -4 4 -10 2 -14 -3z"/>
<path d="M11470 17100 c0 -5 7 -10 16 -10 8 0 12 5 9 10 -3 6 -10 10 -16 10
-5 0 -9 -4 -9 -10z"/>
<path d="M11240 16985 c7 -9 15 -13 17 -11 7 7 -7 26 -19 26 -6 0 -6 -6 2 -15z"/>
<path d="M10350 16946 c-6 -9 -10 -21 -8 -28 3 -8 9 -4 17 10 15 28 9 39 -9
18z"/>
<path d="M11560 16931 c0 -5 7 -12 16 -15 24 -9 27 -7 10 9 -17 17 -26 19 -26
6z"/>
<path d="M9557 16873 c-4 -3 -7 -11 -7 -17 0 -6 5 -5 12 2 6 6 9 14 7 17 -3 3
-9 2 -12 -2z"/>
<path d="M11998 16863 c6 -2 18 -2 25 0 6 3 1 5 -13 5 -14 0 -19 -2 -12 -5z"/>
<path d="M12051 16837 c2 -1 12 -9 22 -16 15 -12 17 -12 11 3 -3 9 -13 16 -22
16 -8 0 -13 -1 -11 -3z"/>
<path d="M12050 16639 c0 -12 25 -22 41 -17 6 2 0 9 -15 16 -16 7 -26 8 -26 1z"/>
<path d="M9450 16587 c0 -20 4 -37 10 -37 5 0 7 14 3 33 -8 45 -13 47 -13 4z"/>
<path d="M9294 16484 c2 -6 -1 -17 -7 -23 -15 -15 2 -14 36 2 36 16 35 37 -3
34 -18 -1 -28 -7 -26 -13z"/>
<path d="M9197 16402 c-15 -16 -24 -31 -20 -35 11 -12 23 -8 23 8 0 8 9 15 20
15 21 0 25 7 12 28 -6 9 -15 5 -35 -16z"/>
<path d="M12860 16421 c0 -5 5 -13 10 -16 6 -3 10 -2 10 4 0 5 -4 13 -10 16
-5 3 -10 2 -10 -4z"/>
<path d="M8975 16391 c-6 -11 9 -23 19 -14 9 9 7 23 -3 23 -6 0 -12 -4 -16 -9z"/>
<path d="M8288 15875 c-3 -11 -9 -29 -13 -40 -6 -17 -5 -17 9 3 10 12 16 30
14 40 -3 15 -5 14 -10 -3z"/>
<path d="M8050 14776 c0 -8 4 -17 9 -20 5 -4 7 3 4 14 -6 23 -13 26 -13 6z"/>
<path d="M10458 14633 c-29 -7 -21 -25 10 -21 15 2 26 7 25 13 -2 12 -12 14
-35 8z"/>
<path d="M10368 14603 c7 -3 16 -2 19 1 4 3 -2 6 -13 5 -11 0 -14 -3 -6 -6z"/>
<path d="M7997 14169 c4 -13 8 -18 11 -10 2 7 -1 18 -6 23 -8 8 -9 4 -5 -13z"/>
<path d="M8960 14160 c0 -5 5 -10 11 -10 5 0 7 5 4 10 -3 6 -8 10 -11 10 -2 0
-4 -4 -4 -10z"/>
<path d="M11965 14090 c20 -22 31 -20 22 5 -4 8 -14 15 -23 15 -16 0 -16 -2 1
-20z"/>
<path d="M8063 14035 c0 -8 4 -15 9 -15 4 0 8 4 8 9 0 6 -4 12 -8 15 -5 3 -9
-1 -9 -9z"/>
<path d="M11422 13946 c13 -9 14 -16 6 -24 -8 -8 -5 -9 11 -5 11 3 21 8 21 12
0 13 -24 31 -39 31 -14 -1 -13 -3 1 -14z"/>
<path d="M11525 13930 c3 -5 8 -10 11 -10 2 0 4 5 4 10 0 6 -5 10 -11 10 -5 0
-7 -4 -4 -10z"/>
<path d="M11028 13893 c7 -3 16 -2 19 1 4 3 -2 6 -13 5 -11 0 -14 -3 -6 -6z"/>
<path d="M9000 13830 c0 -6 7 -10 15 -10 8 0 15 2 15 4 0 2 -7 6 -15 10 -8 3
-15 1 -15 -4z"/>
<path d="M9060 13765 c0 -19 5 -35 10 -35 6 0 10 16 10 35 0 19 -4 35 -10 35
-5 0 -10 -16 -10 -35z"/>
<path d="M9111 13694 c0 -11 3 -14 6 -6 3 7 2 16 -1 19 -3 4 -6 -2 -5 -13z"/>
<path d="M9275 13461 c-3 -5 -1 -12 5 -16 5 -3 10 1 10 9 0 18 -6 21 -15 7z"/>
<path d="M9242 13419 c2 -6 8 -10 13 -10 5 0 11 4 13 10 2 6 -4 11 -13 11 -9
0 -15 -5 -13 -11z"/>
<path d="M9227 13393 c-3 -3 -3 -11 -1 -18 3 -7 1 -16 -5 -20 -6 -3 -11 1 -11
9 0 9 -5 16 -11 16 -7 0 -5 -9 5 -24 11 -18 12 -26 3 -29 -8 -3 -4 -13 12 -28
13 -13 21 -18 17 -11 -4 6 -2 12 4 12 6 0 8 5 5 10 -3 6 1 10 9 10 20 0 16 40
-5 61 -10 10 -20 15 -22 12z"/>
<path d="M9170 13160 c-8 -5 -10 -10 -5 -10 6 0 17 5 25 10 8 5 11 10 5 10 -5
0 -17 -5 -25 -10z"/>
<path d="M9138 12993 c-10 -3 -18 -9 -18 -14 0 -12 37 -12 45 0 7 12 -5 19
-27 14z"/>
<path d="M9031 12964 c0 -11 3 -14 6 -6 3 7 2 16 -1 19 -3 4 -6 -2 -5 -13z"/>
<path d="M11008 12803 c6 -2 18 -2 25 0 6 3 1 5 -13 5 -14 0 -19 -2 -12 -5z"/>
<path d="M11000 12761 c0 -6 5 -11 11 -11 5 0 7 -5 4 -10 -4 -6 -11 -8 -16 -5
-5 4 -9 2 -9 -4 0 -20 19 -21 29 -2 8 14 7 22 -4 31 -11 9 -15 9 -15 1z"/>
<path d="M8958 12653 c7 -3 16 -2 19 1 4 3 -2 6 -13 5 -11 0 -14 -3 -6 -6z"/>
<path d="M8935 12470 c-3 -6 1 -7 9 -4 18 7 21 14 7 14 -6 0 -13 -4 -16 -10z"/>
<path d="M13520 12447 c0 -9 5 -19 10 -22 6 -4 8 -15 5 -25 -3 -10 -2 -27 4
-37 13 -24 38 -143 47 -218 7 -64 15 -75 45 -68 18 5 18 6 -2 32 -19 23 -20
34 -14 103 6 70 4 78 -13 87 -13 7 -21 24 -24 51 -2 22 -1 40 3 40 3 0 4 14 1
31 -3 22 -9 29 -19 24 -9 -3 -22 0 -29 6 -11 9 -14 8 -14 -4z"/>
<path d="M11445 12410 c-3 -5 -1 -10 4 -10 6 0 11 5 11 10 0 6 -2 10 -4 10 -3
0 -8 -4 -11 -10z"/>
<path d="M8920 12399 c0 -5 5 -7 10 -4 6 3 10 8 10 11 0 2 -4 4 -10 4 -5 0
-10 -5 -10 -11z"/>
<path d="M11735 12270 c3 -5 8 -10 11 -10 2 0 4 5 4 10 0 6 -5 10 -11 10 -5 0
-7 -4 -4 -10z"/>
<path d="M13665 12090 c-4 -6 5 -10 19 -10 14 0 26 5 26 10 0 6 -9 10 -19 10
-11 0 -23 -4 -26 -10z"/>
<path d="M13757 11940 c-20 -17 -48 -56 -62 -85 l-27 -54 31 -45 c17 -24 31
-49 31 -55 0 -6 4 -11 8 -11 5 0 21 -22 35 -48 14 -26 53 -79 86 -116 33 -38
63 -78 67 -89 4 -12 12 -27 19 -34 15 -14 58 -125 76 -193 11 -42 12 -43 20
-21 26 67 9 301 -27 378 -13 28 -24 56 -24 61 0 6 -11 32 -25 59 -13 26 -35
86 -48 132 -40 139 -94 180 -160 121z"/>
<path d="M12565 11890 c-3 -5 -1 -10 4 -10 6 0 11 5 11 10 0 6 -2 10 -4 10 -3
0 -8 -4 -11 -10z"/>
<path d="M12635 11860 c3 -5 8 -10 11 -10 2 0 4 5 4 10 0 6 -5 10 -11 10 -5 0
-7 -4 -4 -10z"/>
<path d="M12740 11770 c0 -5 5 -10 11 -10 5 0 7 5 4 10 -3 6 -8 10 -11 10 -2
0 -4 -4 -4 -10z"/>
<path d="M12756 11715 c7 -17 30 -20 38 -6 3 5 -1 12 -10 15 -25 10 -34 7 -28
-9z"/>
<path d="M12870 11670 c0 -13 5 -18 15 -14 12 5 13 10 4 20 -15 19 -19 18 -19
-6z"/>
<path d="M10260 11598 c0 -8 34 -28 48 -28 6 0 8 8 6 18 -5 16 -54 26 -54 10z"/>
<path d="M12936 11601 c-3 -5 1 -11 9 -15 8 -3 15 -1 15 4 0 13 -18 22 -24 11z"/>
<path d="M13606 11592 c-5 -14 -3 -29 4 -37 9 -11 10 -22 2 -42 -14 -34 -15
-52 -12 -178 1 -80 4 -94 11 -70 6 17 7 73 4 128 -3 53 -3 97 0 97 3 0 20 -30
38 -67 42 -90 41 -130 -4 -218 -38 -73 -64 -189 -35 -151 14 18 19 18 103 3
48 -9 97 -18 108 -21 16 -5 29 6 60 48 35 47 40 60 37 98 -3 26 -14 56 -28 75
-13 17 -24 37 -24 43 0 6 -4 9 -9 6 -13 -8 -36 24 -56 79 -20 56 -41 85 -62
85 -7 0 -34 13 -61 30 -39 24 -49 37 -58 72 -9 38 -11 40 -18 20z"/>
<path d="M10510 11590 c0 -5 5 -10 11 -10 5 0 7 5 4 10 -3 6 -8 10 -11 10 -2
0 -4 -4 -4 -10z"/>
<path d="M8880 11540 c0 -41 7 -49 27 -29 13 13 5 42 -9 33 -6 -4 -5 3 1 15
10 17 9 21 -4 21 -11 0 -15 -11 -15 -40z"/>
<path d="M10565 11560 c3 -5 8 -10 11 -10 2 0 4 5 4 10 0 6 -5 10 -11 10 -5 0
-7 -4 -4 -10z"/>
<path d="M9007 11543 c-12 -11 -8 -31 8 -36 8 -4 16 -3 19 1 6 10 -20 43 -27
35z"/>
<path d="M9051 11534 c0 -11 3 -14 6 -6 3 7 2 16 -1 19 -3 4 -6 -2 -5 -13z"/>
<path d="M10543 11530 c3 -11 2 -18 -3 -15 -4 3 -13 -2 -20 -10 -7 -8 -16 -13
-20 -10 -5 3 -11 1 -15 -5 -8 -13 25 -13 45 0 9 6 19 5 28 -2 10 -8 17 -7 29
5 14 14 14 17 0 31 -11 12 -17 13 -20 3 -3 -7 -6 -5 -6 6 -1 9 -6 17 -12 17
-6 0 -9 -9 -6 -20z"/>
<path d="M12933 11504 c-9 -23 9 -69 27 -69 24 0 24 45 1 66 -19 18 -22 18
-28 3z"/>
<path d="M10433 11412 c-24 -28 -28 -41 -15 -43 37 -7 48 -4 49 10 1 9 2 21 3
26 9 41 -7 44 -37 7z"/>
<path d="M10510 11429 c0 -5 5 -7 10 -4 6 3 10 1 10 -4 0 -6 7 -11 16 -11 14
0 14 3 4 15 -14 17 -40 20 -40 4z"/>
<path d="M12965 11391 c-3 -5 -1 -12 4 -15 12 -8 41 3 41 15 0 12 -37 12 -45
0z"/>
<path d="M9347 11343 c7 -46 9 -49 26 -35 20 17 10 72 -14 72 -15 0 -17 -6
-12 -37z"/>
<path d="M9700 11309 c0 -5 5 -7 10 -4 6 3 10 8 10 11 0 2 -4 4 -10 4 -5 0
-10 -5 -10 -11z"/>
<path d="M9060 11278 c0 -17 2 -18 15 -8 8 7 15 14 15 15 0 2 -7 5 -15 9 -10
4 -15 -1 -15 -16z"/>
<path d="M10355 11280 c3 -5 10 -10 16 -10 5 0 9 5 9 10 0 6 -7 10 -16 10 -8
0 -12 -4 -9 -10z"/>
<path d="M9135 11250 c-3 -5 1 -10 10 -10 9 0 13 5 10 10 -3 6 -8 10 -10 10
-2 0 -7 -4 -10 -10z"/>
<path d="M9507 11190 c-3 -13 0 -20 9 -20 15 0 19 26 5 34 -5 3 -11 -3 -14
-14z"/>
<path d="M9770 11196 c0 -9 5 -16 10 -16 6 0 10 4 10 9 0 6 -4 13 -10 16 -5 3
-10 -1 -10 -9z"/>
<path d="M9164 11185 c3 -18 16 -32 16 -17 0 7 7 12 15 12 21 0 19 -36 -2 -44
-10 -4 -31 -14 -48 -24 l-30 -17 25 -3 c14 -2 29 -9 33 -16 5 -6 6 -1 2 11 -5
18 -1 25 18 32 33 13 38 23 24 51 -14 26 -57 39 -53 15z"/>
<path d="M9416 11179 c-11 -10 -17 -21 -14 -24 7 -7 38 23 38 36 0 12 -2 11
-24 -12z"/>
<path d="M9635 11159 c-11 -17 1 -21 15 -4 8 9 8 15 2 15 -6 0 -14 -5 -17 -11z"/>
<path d="M9834 11152 c23 -26 26 -27 26 -5 0 9 -3 13 -7 10 -3 -4 -13 -1 -22
5 -10 8 -9 4 3 -10z"/>
<path d="M9121 11147 c-13 -16 -5 -27 20 -27 12 0 16 6 12 20 -6 23 -16 25
-32 7z"/>
<path d="M9431 11147 c-13 -13 53 -77 77 -77 15 0 15 2 2 10 -13 8 -13 10 0
10 11 0 11 3 2 12 -7 7 -12 23 -12 38 -1 22 -2 23 -11 7 -6 -9 -15 -15 -20
-12 -5 4 -7 10 -5 14 7 11 -22 9 -33 -2z"/>
<path d="M9612 11100 c-15 -33 -10 -60 10 -59 9 0 10 2 1 5 -15 7 -5 34 21 58
16 15 17 18 4 13 -9 -3 -18 -2 -20 4 -2 5 -9 -5 -16 -21z"/>
<path d="M9240 11086 c0 -20 -4 -45 -9 -54 -7 -14 -4 -17 15 -17 23 0 24 3 20
44 -6 58 -26 79 -26 27z"/>
<path d="M9320 11074 c0 -8 5 -12 10 -9 6 3 10 10 10 16 0 5 -4 9 -10 9 -5 0
-10 -7 -10 -16z"/>
<path d="M9812 11065 c11 -25 28 -34 28 -16 0 9 -28 41 -35 41 -3 0 1 -11 7
-25z"/>
<path d="M10095 11080 c3 -5 8 -10 11 -10 2 0 4 5 4 10 0 6 -5 10 -11 10 -5 0
-7 -4 -4 -10z"/>
<path d="M9311 11024 c0 -11 3 -14 6 -6 3 7 2 16 -1 19 -3 4 -6 -2 -5 -13z"/>
<path d="M9235 10999 c-4 -6 -5 -12 -2 -15 2 -3 7 2 10 11 7 17 1 20 -8 4z"/>
<path d="M9634 10984 c-7 -27 17 -56 25 -31 2 7 8 15 13 18 12 8 -2 39 -18 39
-7 0 -17 -12 -20 -26z"/>
<path d="M9250 10939 c0 -5 5 -7 10 -4 6 3 10 8 10 11 0 2 -4 4 -10 4 -5 0
-10 -5 -10 -11z"/>
<path d="M9685 10940 c-3 -6 1 -7 9 -4 18 7 21 14 7 14 -6 0 -13 -4 -16 -10z"/>
<path d="M10091 10934 c0 -11 3 -14 6 -6 3 7 2 16 -1 19 -3 4 -6 -2 -5 -13z"/>
<path d="M9170 10931 c0 -5 9 -7 20 -4 11 3 20 7 20 9 0 2 -9 4 -20 4 -11 0
-20 -4 -20 -9z"/>
<path d="M9435 10900 c-4 -6 3 -10 14 -10 25 0 27 6 6 13 -8 4 -17 2 -20 -3z"/>
<path d="M13680 10870 c0 -5 5 -10 11 -10 5 0 7 5 4 10 -3 6 -8 10 -11 10 -2
0 -4 -4 -4 -10z"/>
<path d="M8190 10700 c0 -5 5 -10 10 -10 6 0 10 5 10 10 0 6 -4 10 -10 10 -5
0 -10 -4 -10 -10z"/>
<path d="M9337 10693 c-4 -3 -7 -13 -7 -21 0 -18 13 -7 16 13 2 17 1 18 -9 8z"/>
<path d="M13970 10459 c0 -5 5 -7 10 -4 6 3 10 8 10 11 0 2 -4 4 -10 4 -5 0
-10 -5 -10 -11z"/>
<path d="M8760 10410 c1 -44 37 -51 113 -24 36 12 45 20 36 28 -8 8 -13 8 -16
-1 -6 -18 -32 -16 -39 2 -8 21 -94 16 -94 -5z"/>
<path d="M9596 8961 c-3 -5 1 -14 9 -21 12 -10 15 -10 15 3 0 19 -16 31 -24
18z"/>
<path d="M9540 8859 c0 -5 5 -7 10 -4 6 3 10 8 10 11 0 2 -4 4 -10 4 -5 0 -10
-5 -10 -11z"/>
<path d="M9506 8821 c-3 -4 1 -16 8 -26 12 -17 13 -16 18 8 5 26 -13 39 -26
18z"/>
<path d="M9460 8732 c0 -4 9 -8 20 -9 11 -1 20 2 20 5 0 4 -9 8 -20 9 -11 1
-20 -2 -20 -5z"/>
<path d="M9495 8650 c3 -5 11 -10 16 -10 6 0 7 5 4 10 -3 6 -11 10 -16 10 -6
0 -7 -4 -4 -10z"/>
<path d="M9660 8560 c0 -5 5 -10 10 -10 6 0 10 5 10 10 0 6 -4 10 -10 10 -5 0
-10 -4 -10 -10z"/>
<path d="M9627 8283 c-2 -5 -2 -26 0 -48 2 -22 5 -51 7 -65 1 -14 -2 -31 -7
-38 -6 -7 -7 -15 -3 -19 3 -3 6 -1 6 5 0 7 7 12 15 12 8 0 15 -5 15 -12 0 -21
12 0 15 29 5 36 -4 65 -16 57 -10 -6 -5 44 5 54 7 6 -13 32 -25 32 -4 0 -10
-3 -12 -7z"/>
<path d="M9604 7956 c-5 -21 -9 -24 -20 -15 -11 9 -14 7 -14 -9 0 -24 16 -38
23 -20 2 7 7 -2 11 -20 6 -27 10 -31 22 -21 8 6 14 19 13 28 0 10 -2 12 -6 3
-2 -6 -9 -10 -14 -7 -5 4 -1 17 8 31 15 23 15 27 0 41 -14 15 -16 14 -23 -11z"/>
<path d="M9701 7964 c0 -11 3 -14 6 -6 3 7 2 16 -1 19 -3 4 -6 -2 -5 -13z"/>
<path d="M9647 7856 c-3 -8 -1 -17 6 -19 9 -3 8 -8 -2 -20 -8 -11 -9 -17 -3
-17 6 0 16 9 22 20 8 14 8 20 0 20 -6 0 -9 4 -5 9 3 5 1 12 -4 15 -5 3 -11 -1
-14 -8z"/>
<path d="M9560 7850 c0 -5 5 -10 11 -10 5 0 7 5 4 10 -3 6 -8 10 -11 10 -2 0
-4 -4 -4 -10z"/>
<path d="M9480 7821 c0 -6 5 -13 10 -16 6 -3 10 1 10 9 0 9 -4 16 -10 16 -5 0
-10 -4 -10 -9z"/>
<path d="M9695 7820 c4 -6 11 -8 16 -5 14 9 11 15 -7 15 -8 0 -12 -5 -9 -10z"/>
<path d="M9551 7714 c0 -11 3 -14 6 -6 3 7 2 16 -1 19 -3 4 -6 -2 -5 -13z"/>
<path d="M9650 7700 c0 -5 5 -10 11 -10 5 0 7 5 4 10 -3 6 -8 10 -11 10 -2 0
-4 -4 -4 -10z"/>
<path d="M9726 7651 c-3 -5 1 -14 9 -21 12 -10 15 -10 15 3 0 19 -16 31 -24
18z"/>
<path d="M9137 7620 c4 -13 0 -26 -8 -32 -12 -8 -11 -9 1 -5 18 5 26 35 11 50
-7 7 -8 3 -4 -13z"/>
<path d="M9586 7611 c-3 -4 1 -17 8 -27 13 -17 14 -17 9 9 -6 29 -9 32 -17 18z"/>
<path d="M9170 7560 c-18 -11 -21 -80 -2 -73 6 3 12 -2 12 -11 0 -9 6 -13 14
-10 14 5 19 54 5 54 -4 0 -9 11 -11 25 -2 19 -6 22 -18 15z"/>
<path d="M9125 7460 c-3 -5 -4 -10 -1 -10 2 0 12 -3 20 -6 12 -5 15 -2 10 10
-7 18 -20 21 -29 6z"/>
<path d="M9710 7460 c0 -5 5 -10 11 -10 5 0 7 5 4 10 -3 6 -8 10 -11 10 -2 0
-4 -4 -4 -10z"/>
<path d="M9176 7435 c4 -8 10 -15 15 -15 4 0 6 7 3 15 -4 8 -10 15 -15 15 -4
0 -6 -7 -3 -15z"/>
<path d="M9702 7419 c-7 -12 -11 -24 -8 -27 3 -3 6 0 6 7 0 8 7 11 15 7 10 -4
15 1 15 14 0 26 -12 25 -28 -1z"/>
<path d="M9142 7421 c2 -7 7 -12 11 -12 12 1 9 15 -3 20 -7 2 -11 -2 -8 -8z"/>
<path d="M9187 7365 c-4 -8 -1 -17 5 -21 7 -4 8 -3 4 4 -4 7 -2 12 3 12 6 0
11 5 11 10 0 15 -17 12 -23 -5z"/>
<path d="M9710 7280 c0 -5 5 -10 10 -10 6 0 10 5 10 10 0 6 -4 10 -10 10 -5 0
-10 -4 -10 -10z"/>
<path d="M9757 7250 c-3 -11 -3 -20 -1 -20 2 0 8 9 14 20 6 11 7 20 2 20 -6 0
-12 -9 -15 -20z"/>
<path d="M9180 7254 c0 -17 17 -36 24 -26 3 5 -1 15 -9 22 -8 7 -15 9 -15 4z"/>
<path d="M9835 7240 c-3 -5 1 -10 9 -10 9 0 16 5 16 10 0 6 -4 10 -9 10 -6 0
-13 -4 -16 -10z"/>
<path d="M9632 7203 c14 -52 17 -52 15 -4 -1 24 -6 41 -13 41 -9 0 -10 -9 -2
-37z"/>
<path d="M9215 7200 c3 -5 8 -10 11 -10 2 0 4 5 4 10 0 6 -5 10 -11 10 -5 0
-7 -4 -4 -10z"/>
<path d="M9830 7170 c0 -5 5 -10 11 -10 5 0 7 5 4 10 -3 6 -8 10 -11 10 -2 0
-4 -4 -4 -10z"/>
<path d="M9550 7086 c0 -9 5 -16 10 -16 6 0 10 4 10 9 0 6 -4 13 -10 16 -5 3
-10 -1 -10 -9z"/>
<path d="M9725 7089 c-4 -6 -2 -16 5 -22 10 -9 11 -9 6 0 -3 6 -1 13 6 15 9 3
9 6 1 11 -7 4 -15 2 -18 -4z"/>
<path d="M9619 7078 c-11 -8 -10 -9 4 -4 9 3 17 1 17 -4 0 -6 5 -10 10 -10 6
0 10 4 10 9 0 14 -26 20 -41 9z"/>
<path d="M12135 7059 c-4 -6 -5 -12 -2 -15 2 -3 7 2 10 11 7 17 1 20 -8 4z"/>
<path d="M9232 6990 c0 -14 2 -19 5 -12 2 6 2 18 0 25 -3 6 -5 1 -5 -13z"/>
<path d="M9534 6988 c2 -13 8 -22 13 -21 6 1 9 -9 7 -22 -1 -14 2 -25 6 -25 5
0 12 -9 15 -20 9 -28 23 -25 21 5 0 15 -6 23 -13 21 -16 -6 -22 15 -11 37 10
19 2 40 -13 32 -5 -4 -9 -1 -9 4 0 6 -4 11 -10 11 -5 0 -8 -10 -6 -22z"/>
<path d="M9650 6950 c0 -13 18 -22 24 -11 3 5 -1 11 -9 15 -8 3 -15 1 -15 -4z"/>
<path d="M9520 6893 c0 -12 5 -25 10 -28 13 -8 13 15 0 35 -8 12 -10 11 -10
-7z"/>
<path d="M9711 6851 c-12 -8 -12 -11 1 -25 14 -14 16 -13 14 9 0 14 -1 25 -1
25 0 0 -6 -4 -14 -9z"/>
<path d="M9805 6781 c-3 -5 -2 -12 3 -15 5 -3 9 1 9 9 0 17 -3 19 -12 6z"/>
<path d="M8660 6761 c0 -6 4 -13 10 -16 6 -3 7 1 4 9 -7 18 -14 21 -14 7z"/>
<path d="M12590 6761 c0 -5 5 -13 10 -16 6 -3 10 -2 10 4 0 5 -4 13 -10 16 -5
3 -10 2 -10 -4z"/>
<path d="M9628 6747 c-22 -9 -26 -15 -22 -34 5 -19 2 -23 -16 -23 -23 0 -23 0
4 -25 36 -33 43 -32 39 8 -2 17 0 26 3 20 8 -19 28 -16 42 7 9 14 9 20 1 20
-8 0 -7 6 2 17 10 11 10 14 2 9 -7 -4 -13 -2 -13 3 0 13 -6 13 -42 -2z"/>
<path d="M9708 6713 c7 -3 16 -2 19 1 4 3 -2 6 -13 5 -11 0 -14 -3 -6 -6z"/>
<path d="M8830 6630 c0 -17 30 -39 54 -40 11 0 16 -3 13 -7 -4 -3 1 -12 11
-19 27 -21 38 -16 14 6 -12 12 -22 25 -22 31 0 6 -5 7 -11 4 -6 -4 -21 3 -35
16 -15 14 -24 18 -24 9z"/>
<path d="M12595 6610 c-3 -5 1 -10 9 -10 9 0 16 5 16 10 0 6 -4 10 -9 10 -6 0
-13 -4 -16 -10z"/>
<path d="M9201 6570 c-1 -26 11 -60 19 -55 4 3 13 -2 20 -10 7 -8 17 -15 23
-15 8 0 7 4 0 11 -14 14 8 41 28 37 6 -2 13 3 15 10 1 7 0 8 -3 2 -2 -5 -9 -7
-14 -4 -6 3 -16 1 -24 -6 -9 -7 -15 -8 -20 0 -3 5 -1 10 4 10 6 0 11 5 11 10
0 17 -28 11 -33 -7 -3 -15 -6 -14 -15 7 -6 14 -11 18 -11 10z"/>
<path d="M12665 6469 c30 -44 59 -97 66 -117 6 -20 15 -41 19 -47 4 -5 11 -26
15 -45 4 -19 11 -41 16 -50 4 -8 15 -49 24 -90 9 -41 20 -84 25 -95 8 -17 19
-65 36 -155 10 -52 19 -200 14 -225 -9 -39 -3 -111 11 -136 7 -14 7 -24 0 -33
-6 -7 -8 -16 -4 -20 4 -4 1 -11 -7 -16 -10 -7 -11 -10 -2 -10 10 0 10 -4 0
-22 -7 -13 -20 -28 -28 -35 -23 -19 48 8 85 32 115 75 197 244 167 346 -17 54
-87 220 -115 269 -66 116 -146 278 -140 284 4 3 1 6 -4 6 -6 0 -25 21 -42 48
-52 80 -86 119 -135 156 -25 20 -48 36 -51 36 -2 0 20 -36 50 -81z"/>
<path d="M10830 5500 c-9 -6 -10 -10 -3 -10 6 0 15 5 18 10 8 12 4 12 -15 0z"/>
<path d="M9592 2742 c-55 -6 -59 -33 -26 -202 15 -80 29 -147 30 -148 2 -2 18
1 36 7 18 6 53 13 78 15 25 3 61 10 80 16 50 14 58 13 76 -14 16 -26 47 -142
41 -160 -3 -10 -70 -27 -199 -50 -42 -8 -82 -18 -89 -21 -11 -8 -8 -129 4
-141 5 -6 131 -18 301 -29 l99 -7 -8 147 c-4 82 -11 162 -16 179 -5 17 -9 47
-9 67 0 58 -15 68 -108 76 -47 3 -89 12 -97 19 -14 15 -41 171 -31 182 18 18
239 -6 406 -44 78 -18 96 -19 217 -22 81 -2 78 2 88 -97 3 -33 10 -89 16 -125
5 -36 14 -103 19 -150 5 -47 15 -120 21 -162 l11 -78 32 0 c168 0 754 44 946
70 138 19 133 17 127 56 -7 42 5 43 41 4 l27 -31 139 24 c85 15 141 30 147 38
9 14 50 19 59 7 3 -3 20 -3 39 0 l34 7 -2 98 c-2 98 6 119 30 75 32 -60 93
-148 103 -147 6 0 88 19 181 42 l170 42 3 43 c4 51 14 53 32 7 9 -24 19 -34
29 -30 9 2 77 22 151 44 74 22 159 48 189 58 l53 19 -233 22 c-129 12 -297 26
-374 33 -146 11 -235 21 -420 45 -60 7 -184 23 -275 33 -91 11 -189 25 -219
31 -68 13 -114 13 -106 0 11 -18 -57 -11 -71 7 -11 16 -36 18 -273 18 -143 0
-263 4 -267 8 -4 4 -39 7 -78 6 -39 0 -65 -3 -58 -6 21 -8 13 -23 -13 -23 -14
0 -25 -4 -25 -9 0 -23 14 -41 32 -41 38 0 51 -26 46 -92 -4 -49 -9 -65 -29
-81 -13 -10 -24 -23 -24 -27 0 -5 -3 -11 -7 -15 -4 -4 0 -18 8 -30 16 -25 16
-74 -1 -78 -5 -1 -11 18 -13 43 -2 26 -10 48 -18 53 -19 11 -18 30 6 57 29 34
25 58 -15 81 -37 22 -43 45 -26 92 8 20 3 30 -29 67 -35 39 -42 43 -106 51
-38 5 -134 13 -214 18 -80 6 -156 12 -169 15 -179 39 -224 45 -341 44 -69 -1
-140 -4 -158 -6z m1213 -222 c22 -74 22 -114 2 -107 -12 4 -26 45 -33 97 -2
19 -7 48 -9 63 -10 58 18 20 40 -53z m86 -21 c10 -46 26 -118 34 -159 9 -41
27 -92 40 -112 24 -37 32 -68 18 -68 -10 0 -70 40 -61 40 12 0 -33 81 -48 87
-16 6 -19 53 -4 53 12 0 13 33 1 46 -5 5 -12 56 -16 114 -8 127 6 127 36 -1z
m572 -55 c5 -32 13 -64 18 -71 7 -7 6 -14 -2 -19 -14 -8 -39 22 -39 48 0 10
-4 18 -9 18 -6 0 -7 10 -4 23 2 12 5 32 4 45 -2 49 24 13 32 -44z m-353 -127
c0 -10 -4 -15 -10 -12 -5 3 -10 18 -10 33 0 21 2 24 10 12 5 -8 10 -23 10 -33z
m920 -42 c0 -8 -4 -15 -10 -15 -5 0 -7 7 -4 15 4 8 8 15 10 15 2 0 4 -7 4 -15z
m-1240 -62 c0 -19 -20 -16 -27 5 -4 9 -11 20 -16 23 -6 4 -7 15 -3 25 6 16 9
14 26 -11 11 -17 20 -36 20 -42z m67 50 c4 -10 10 -20 14 -23 4 -3 11 -18 14
-33 5 -20 4 -27 -8 -27 -18 0 -42 35 -49 73 -6 31 18 39 29 10z m288 -42 c3
-6 -1 -11 -9 -11 -12 0 -16 10 -15 38 1 34 1 35 9 10 4 -14 11 -31 15 -37z
m888 4 c-7 -21 -13 -19 -13 6 0 11 4 18 10 14 5 -3 7 -12 3 -20z"/>
<path d="M9192 2713 c-24 -2 -45 -10 -48 -17 -3 -7 8 -53 24 -102 29 -89 64
-212 77 -268 3 -17 9 -25 13 -19 4 6 23 14 42 17 87 18 100 26 100 59 0 18
-16 88 -36 157 -20 69 -39 137 -41 153 -6 29 -13 30 -131 20z"/>
<path d="M10637 2513 c-2 -5 9 -18 24 -31 25 -20 30 -21 35 -8 11 30 -44 65
-59 39z"/>
<path d="M10155 2362 c3 -37 10 -83 15 -102 5 -19 12 -83 16 -141 l6 -107 45
-6 c76 -10 126 -8 120 7 -6 17 -24 133 -42 270 -8 66 -18 123 -21 129 -4 5
-23 8 -43 6 -20 -3 -51 -1 -70 3 l-33 7 7 -66z"/>
<path d="M9254 2221 c3 -35 6 -81 6 -101 0 -43 3 -45 112 -56 l67 -7 -6 39
c-3 22 -7 41 -9 43 -2 2 -29 -2 -60 -9 -65 -16 -69 -13 -79 60 -4 25 -13 56
-21 70 -14 23 -15 21 -10 -39z"/>
<path d="M12154 2229 c3 -17 6 -35 6 -39 0 -5 8 -6 18 -3 18 4 18 7 3 39 -19
43 -36 44 -27 3z"/>
</g>
</svg>
